<?xml version="1.0" encoding="UTF-8" standalone="no"?>
<!-- Created with Inkscape (http://www.inkscape.org/) -->

<svg
   xmlns:dc="http://purl.org/dc/elements/1.1/"
   xmlns:cc="http://creativecommons.org/ns#"
   xmlns:rdf="http://www.w3.org/1999/02/22-rdf-syntax-ns#"
   xmlns:svg="http://www.w3.org/2000/svg"
   xmlns="http://www.w3.org/2000/svg"
   xmlns:sodipodi="http://sodipodi.sourceforge.net/DTD/sodipodi-0.dtd"
   xmlns:inkscape="http://www.inkscape.org/namespaces/inkscape"
   width="377mm"
   height="196mm"
   viewBox="0 0 377 196"
   version="1.1"
   id="svg8"
   inkscape:version="0.92.2 (5c3e80d, 2017-08-06)"
   sodipodi:docname="general.svg">
  <defs
     id="defs2">
    <inkscape:path-effect
       effect="spiro"
       id="path-effect1116"
       is_visible="true" />
    <inkscape:path-effect
       effect="spiro"
       id="path-effect1112"
       is_visible="true" />
    <inkscape:path-effect
       effect="spiro"
       id="path-effect1108"
       is_visible="true" />
    <inkscape:path-effect
       effect="spiro"
       id="path-effect1104"
       is_visible="true" />
  </defs>
  <sodipodi:namedview
     id="base"
     pagecolor="#ffffff"
     bordercolor="#666666"
     borderopacity="1.0"
     inkscape:pageopacity="0.0"
     inkscape:pageshadow="2"
     inkscape:zoom="0.84824194"
     inkscape:cx="1178.5951"
     inkscape:cy="381.72476"
     inkscape:document-units="mm"
     inkscape:current-layer="layer1"
     showgrid="false"
     inkscape:window-width="1366"
     inkscape:window-height="705"
     inkscape:window-x="-8"
     inkscape:window-y="-8"
     inkscape:window-maximized="1" />
  <metadata
     id="metadata5">
    <rdf:RDF>
      <cc:Work
         rdf:about="">
        <dc:format>image/svg+xml</dc:format>
        <dc:type
           rdf:resource="http://purl.org/dc/dcmitype/StillImage" />
        <dc:title />
      </cc:Work>
    </rdf:RDF>
  </metadata>
  <g
     inkscape:label="Capa 1"
     inkscape:groupmode="layer"
     id="layer1"
     transform="translate(0,-101)">
    <path
       sodipodi:type="star"
       style="opacity:1;fill:#006680;fill-opacity:0.75879397;fill-rule:nonzero;stroke:none;stroke-width:0.99459976;stroke-linecap:butt;stroke-linejoin:miter;stroke-miterlimit:4;stroke-dasharray:none;stroke-dashoffset:0;stroke-opacity:1;paint-order:stroke fill markers"
       id="path921-4-9-5-2"
       sodipodi:sides="6"
       sodipodi:cx="90.192093"
       sodipodi:cy="161.51494"
       sodipodi:r1="55.900375"
       sodipodi:r2="39.527546"
       sodipodi:arg1="0.83136255"
       sodipodi:arg2="1.3549613"
       inkscape:flatsided="true"
       inkscape:rounded="0.09"
       inkscape:randomized="0"
       d="m 127.86166,202.81694 c -3.71718,3.39027 -49.808727,13.49585 -54.60337,11.9718 -4.794642,-1.52404 -36.592105,-36.3877 -37.669567,-41.302 -1.077462,-4.91431 13.216622,-49.88355 16.933803,-53.27381 3.71718,-3.39026 49.808724,-13.49584 54.603374,-11.9718 4.79464,1.52405 36.5921,36.38771 37.66956,41.30201 1.07746,4.9143 -13.21662,49.88354 -16.9338,53.2738 z"
       inkscape:transform-center-x="0.031599257"
       inkscape:transform-center-y="0.0028607559"
       transform="matrix(0.59127744,0,0,0.75605826,376.00834,37.005577)" />
    <path
       sodipodi:type="star"
       style="opacity:1;fill:#006680;fill-opacity:0.75879397;fill-rule:nonzero;stroke:none;stroke-width:0.8983767;stroke-linecap:butt;stroke-linejoin:miter;stroke-miterlimit:4;stroke-dasharray:none;stroke-dashoffset:0;stroke-opacity:1;paint-order:stroke fill markers"
       id="path921"
       sodipodi:sides="6"
       sodipodi:cx="90.192093"
       sodipodi:cy="161.51494"
       sodipodi:r1="55.900375"
       sodipodi:r2="39.527546"
       sodipodi:arg1="0.83136255"
       sodipodi:arg2="1.3549613"
       inkscape:flatsided="true"
       inkscape:rounded="0.09"
       inkscape:randomized="0"
       d="m 127.86166,202.81694 c -3.71718,3.39027 -49.808727,13.49585 -54.60337,11.9718 -4.794642,-1.52404 -36.592105,-36.3877 -37.669567,-41.302 -1.077462,-4.91431 13.216622,-49.88355 16.933803,-53.27381 3.71718,-3.39026 49.808724,-13.49584 54.603374,-11.9718 4.79464,1.52405 36.5921,36.38771 37.66956,41.30201 1.07746,4.9143 -13.21662,49.88354 -16.9338,53.2738 z"
       inkscape:transform-center-x="0.035961013"
       inkscape:transform-center-y="0.0030860566"
       transform="matrix(0.67301791,0,0,0.81414113,-19.779524,21.377381)" />
    <path
       style="opacity:1;fill:#d5ffe6;fill-opacity:0.75879397;fill-rule:nonzero;stroke:none;stroke-width:0.66500002;stroke-linecap:butt;stroke-linejoin:miter;stroke-miterlimit:4;stroke-dasharray:none;stroke-dashoffset:0;stroke-opacity:1;paint-order:stroke fill markers"
       d="m 39.784765,179.04136 c -0.959226,-0.98532 -3.900167,-3.937 -6.535431,-6.55926 -7.475724,-7.43893 -10.529591,-11.39534 -12.981593,-16.81825 -1.794738,-3.96932 -2.218111,-5.8236 -2.240436,-9.8128 -0.02177,-3.89591 0.127876,-4.54033 1.693576,-7.29076 1.762891,-3.09686 4.773275,-5.86415 7.395577,-6.7984 1.57801,-0.56219 4.370337,-0.73034 5.878554,-0.35405 0.691443,0.17244 1.810568,0.64554 2.486919,1.05115 1.703263,1.02143 4.701354,3.98322 5.72082,5.6516 0.46713,0.76449 0.91123,1.39428 0.986865,1.39955 0.07571,0.004 0.387189,-0.41773 0.692326,-0.94007 1.166879,-1.99741 4.038524,-4.77341 6.267137,-6.05836 1.493605,-0.86117 4.184818,-1.60252 5.817389,-1.60252 4.210516,0 8.037706,2.86007 10.103508,7.55036 1.245957,2.8289 1.442569,4.15905 1.350848,9.13846 l -0.07761,4.21277 -1.057636,2.48545 c -1.694457,3.98204 -3.058415,5.99815 -7.403669,10.94382 -4.626104,5.26524 -12.196188,12.54658 -15.757165,15.1561 l -0.5959,0.43668 z m 7.288157,-5.76593 c 5.704174,-5.39773 12.162223,-12.58788 14.109305,-15.70871 2.720421,-4.3604 3.644438,-7.48067 3.42923,-11.57997 -0.219194,-4.17515 -1.658929,-7.94049 -3.951029,-10.33312 -1.873572,-1.95575 -3.016461,-2.46034 -5.571352,-2.45968 -1.164415,3e-4 -2.667928,0.16707 -3.341144,0.37067 -3.402776,1.02901 -6.595049,3.92316 -7.939253,7.19781 -1.217629,2.96633 -1.263226,3.06262 -1.450058,3.06262 -0.09635,0 -0.656108,-0.98746 -1.243764,-2.19437 -1.697516,-3.48623 -3.907404,-5.89384 -7.196948,-7.84092 -1.097869,-0.64982 -1.446505,-0.72549 -3.342825,-0.72549 -1.901422,0 -2.241992,0.0745 -3.342806,0.7303 -5.412163,3.22461 -8.097455,7.64873 -7.721276,12.72111 0.239166,3.2249 1.802406,7.98237 3.160664,9.61898 1.280958,1.54352 1.688088,1.22854 3.464326,-2.68 1.037183,-2.28227 2.061642,-3.80482 2.560076,-3.80482 0.427552,0 0.607407,0.47177 1.544771,4.05203 0.455847,1.74109 0.960217,3.45056 1.120819,3.79876 l 0.29198,0.63312 0.212616,-0.63312 c 0.117002,-0.3482 0.637207,-2.34257 1.156156,-4.43191 1.132712,-4.56031 1.913012,-6.55089 2.61228,-6.66391 0.628295,-0.10165 0.754471,0.38741 2.521379,9.77201 1.428342,7.58646 1.680727,8.63784 1.984262,8.26618 0.10386,-0.12709 0.811188,-2.39365 1.571913,-5.03666 1.503626,-5.22415 1.871031,-6.21099 2.312411,-6.21099 0.404537,0 1.046001,0.85395 2.148511,2.86028 0.520042,0.94633 1.033373,1.6871 1.14073,1.64613 0.107371,-0.041 0.522825,-0.64431 0.923266,-1.34075 l 0.728044,-1.26625 2.936846,-0.1267 c 2.830484,-0.12191 2.959973,-0.15174 3.57554,-0.82306 1.258744,-1.37253 3.400002,-0.55662 3.400002,1.29553 0,1.6082 -2.333755,2.71621 -3.405505,1.61685 -0.36421,-0.37357 -0.804355,-0.43282 -2.802589,-0.3771 -1.303779,0.0364 -2.543831,0.12849 -2.755662,0.20496 -0.244976,0.0883 -0.547391,0.75791 -0.830874,1.83966 -0.853614,3.25725 -1.415008,3.31737 -3.172939,0.33977 -0.631267,-1.06922 -1.256135,-2.02888 -1.388584,-2.13256 -0.490194,-0.38365 -0.957242,0.87616 -2.449841,6.6084 -1.360448,5.22476 -1.585115,5.88651 -2.042786,6.01706 -0.28281,0.0809 -0.617153,0.0745 -0.742978,-0.0139 -0.369345,-0.2594 -1.038589,-3.19245 -2.025617,-8.87745 -0.87016,-5.01193 -1.425331,-7.8694 -1.697545,-8.73718 -0.192919,-0.61504 -0.604638,0.5024 -1.84501,5.00758 -1.369364,4.9737 -1.677813,5.84249 -2.146942,6.04705 -0.645705,0.2816 -0.958988,-0.47552 -1.99761,-4.82776 -0.562163,-2.35568 -1.074039,-4.37853 -1.137497,-4.49522 -0.25453,-0.46801 -0.523816,-0.12787 -1.385655,1.75055 -1.006086,2.19268 -1.655457,3.10047 -2.222052,3.10619 -0.209719,0.002 -0.525515,0.10756 -0.701752,0.23433 -0.266276,0.19152 -0.217802,0.39872 0.286732,1.22605 0.923007,1.51358 6.64874,7.79797 11.51071,12.63381 2.390113,2.37726 4.536689,4.5653 4.770189,4.86231 0.233501,0.29703 0.637606,0.54004 0.898024,0.54004 0.287453,0 2.440957,-1.86178 5.481111,-4.73861 z"
       id="path923"
       inkscape:connector-curvature="0" />
    <path
       sodipodi:type="star"
       style="opacity:1;fill:#006680;fill-opacity:0.75879397;fill-rule:nonzero;stroke:none;stroke-width:0.91181195;stroke-linecap:butt;stroke-linejoin:miter;stroke-miterlimit:4;stroke-dasharray:none;stroke-dashoffset:0;stroke-opacity:1;paint-order:stroke fill markers"
       id="path921-4"
       sodipodi:sides="6"
       sodipodi:cx="90.192093"
       sodipodi:cy="161.51494"
       sodipodi:r1="55.900375"
       sodipodi:r2="39.527546"
       sodipodi:arg1="0.83136255"
       sodipodi:arg2="1.3549613"
       inkscape:flatsided="true"
       inkscape:rounded="0.09"
       inkscape:randomized="0"
       d="m 127.86166,202.81694 c -3.71718,3.39027 -49.808727,13.49585 -54.60337,11.9718 -4.794642,-1.52404 -36.592105,-36.3877 -37.669567,-41.302 -1.077462,-4.91431 13.216622,-49.88355 16.933803,-53.27381 3.71718,-3.39026 49.808724,-13.49584 54.603374,-11.9718 4.79464,1.52405 36.5921,36.38771 37.66956,41.30201 1.07746,4.9143 -13.21662,49.88354 -16.9338,53.2738 z"
       inkscape:transform-center-x="0.036746411"
       inkscape:transform-center-y="0.0029381899"
       transform="matrix(0.68752387,0,0,0.77365068,69.062806,99.778391)" />
    <path
       style="opacity:1;fill:#ffffff;fill-opacity:0.75879397;fill-rule:nonzero;stroke:none;stroke-width:0.66499996;stroke-linecap:butt;stroke-linejoin:miter;stroke-miterlimit:4;stroke-dasharray:none;stroke-dashoffset:0;stroke-opacity:1;paint-order:stroke fill markers"
       d="m 112.28656,245.08465 c -0.42674,-0.35485 -0.49874,-0.89093 -0.25163,-1.87358 0.0761,-0.30238 0.21132,-0.84741 0.30051,-1.21119 0.14396,-0.58624 0.72018,-1.22754 5.07046,-5.64192 3.7965,-3.85245 4.92872,-5.08909 4.9989,-5.4599 0.0597,-0.31598 0.53801,-0.96819 1.40294,-1.91331 0.72175,-0.78864 1.31225,-1.49313 1.31225,-1.56551 0,-0.0724 -0.28082,-0.48363 -0.62408,-0.91395 -1.15685,-1.4503 -1.58347,-0.82842 6.27815,-9.15121 3.79624,-4.01894 7.42498,-7.80918 8.0639,-8.42273 1.3293,-1.27665 1.75975,-1.3989 2.45308,-0.69674 0.22748,0.23047 0.4854,0.4189 0.57314,0.4189 0.2074,0 2.27603,-2.02367 2.27603,-2.22671 0,-0.0855 -0.24938,-0.47689 -0.55418,-0.8701 -0.45195,-0.58303 -0.55124,-0.834 -0.53821,-1.36018 0.014,-0.5897 0.10838,-0.73666 1.08824,-1.70697 1.66503,-1.64876 1.37517,-1.79054 5.5599,2.72007 l 3.50858,3.78177 v 0.75452 c 0,0.73082 -0.0328,0.78713 -1.04296,1.79454 -1.32525,1.32155 -1.70421,1.36982 -2.76717,0.3525 l -0.71836,-0.6875 -1.13579,1.27658 -1.13578,1.27656 0.42812,0.51596 c 0.82395,0.99305 0.73219,1.179 -2.06086,4.17508 -1.36891,1.46843 -2.56074,2.74549 -2.64846,2.83787 -10.37554,10.92916 -10.84435,11.39924 -11.36862,11.39924 -0.40292,0 -0.67264,-0.15355 -1.24293,-0.70687 -0.40057,-0.38877 -0.76033,-0.70686 -0.79946,-0.70686 -0.0389,0 -0.6932,0.63616 -1.45355,1.41373 -1.20803,1.23538 -1.44833,1.41369 -1.90516,1.41369 -0.58644,0 -0.57214,-0.0139 -6.25168,5.73886 -5.14153,5.20714 -5.53359,5.57092 -6.00434,5.57092 -0.2307,0 -0.59565,-0.14657 -0.81098,-0.32556 z m 8.15268,-8.36087 4.16069,-4.30934 -0.28804,-0.34092 c -0.15848,-0.18734 -0.37435,-0.32061 -0.47982,-0.29582 -0.10542,0.0251 -2.45867,2.32773 -5.22933,5.11764 -4.99334,5.02803 -5.03971,5.08054 -5.27826,5.97936 -0.13242,0.49873 -0.24069,0.99839 -0.24069,1.11031 0,0.25664 2.06808,-1.78492 7.35545,-7.26123 z m 6.35556,-5.88586 c 0.71343,-0.75765 1.29712,-1.48597 1.29712,-1.61853 0,-0.13245 -0.2352,-0.48194 -0.52266,-0.77645 l -0.52265,-0.53553 -1.40911,1.48335 c -0.775,0.81585 -1.40907,1.56796 -1.40907,1.67133 0,0.17462 1.00855,1.1534 1.18858,1.1534 0.0443,0 0.66438,-0.6199 1.37779,-1.37757 z m 4.97859,-0.86445 0.92387,-0.9854 -1.33242,-1.55038 c -1.24118,-1.44424 -1.44639,-1.81955 -0.99478,-1.81955 0.099,0 0.74567,0.60082 1.43674,1.33516 0.69107,0.73433 1.32737,1.33519 1.41397,1.33519 0.14396,0 0.96881,-0.85879 1.83828,-1.91388 l 0.34744,-0.42162 -1.29599,-1.51687 c -0.88475,-1.03552 -1.24766,-1.56796 -1.14373,-1.67782 0.20786,-0.21961 0.93416,0.38472 2.0113,1.67368 0.47299,0.56598 0.90977,1.02909 0.97064,1.02909 0.0608,0 0.5965,-0.56612 1.19038,-1.25797 l 1.07975,-1.25798 -1.27618,-1.44569 c -1.19707,-1.35611 -1.3837,-1.68022 -1.03788,-1.80207 0.078,-0.0272 0.73658,0.58197 1.46378,1.35425 l 1.32213,1.40411 1.16452,-1.11156 c 0.64047,-0.61133 1.16451,-1.18519 1.16451,-1.27527 0,-0.09 -0.56838,-0.77773 -1.26307,-1.52817 -0.69467,-0.75046 -1.26305,-1.44425 -1.26305,-1.54174 0,-0.44273 0.55771,-0.074 1.79609,1.18818 l 1.33996,1.3655 2.01364,-2.12862 2.01365,-2.12859 -2.65295,-2.84791 -2.65295,-2.84793 -7.49026,7.86518 -7.49022,7.86515 2.65935,2.81446 c 1.46263,1.54795 2.69539,2.81444 2.73947,2.81444 0.0441,0 0.49589,-0.44344 1.00401,-0.98537 z m 16.00215,-20.0517 0.58912,-0.64371 -1.18067,-1.25548 -1.1807,-1.25544 -1.82258,1.92199 -1.8226,1.92205 1.14,1.21215 1.13994,1.21214 1.2742,-1.23495 c 0.70078,-0.67926 1.53928,-1.5247 1.86329,-1.87875 z m 3.37767,0.35168 c 0.22932,-0.23221 0.4168,-0.48608 0.4168,-0.56428 0,-0.16208 -5.58854,-6.28854 -5.81375,-6.37322 -0.17303,-0.0653 -0.69003,0.40073 -0.89549,0.80655 -0.12069,0.2385 0.32266,0.78178 2.78888,3.41824 1.61285,1.72414 2.96716,3.13482 3.0096,3.13482 0.0425,0 0.26476,-0.18994 0.49396,-0.42211 z"
       id="path967"
       inkscape:connector-curvature="0" />
    <path
       sodipodi:type="star"
       style="opacity:1;fill:#006680;fill-opacity:0.75879397;fill-rule:nonzero;stroke:none;stroke-width:0.82348734;stroke-linecap:butt;stroke-linejoin:miter;stroke-miterlimit:4;stroke-dasharray:none;stroke-dashoffset:0;stroke-opacity:1;paint-order:stroke fill markers"
       id="path921-4-9"
       sodipodi:sides="6"
       sodipodi:cx="90.192093"
       sodipodi:cy="161.51494"
       sodipodi:r1="55.900375"
       sodipodi:r2="39.527546"
       sodipodi:arg1="0.83136255"
       sodipodi:arg2="1.3549613"
       inkscape:flatsided="true"
       inkscape:rounded="0.09"
       inkscape:randomized="0"
       d="m 127.86166,202.81694 c -3.71718,3.39027 -49.808727,13.49585 -54.60337,11.9718 -4.794642,-1.52404 -36.592105,-36.3877 -37.669567,-41.302 -1.077462,-4.91431 13.216622,-49.88355 16.933803,-53.27381 3.71718,-3.39026 49.808724,-13.49584 54.603374,-11.9718 4.79464,1.52405 36.5921,36.38771 37.66956,41.30201 1.07746,4.9143 -13.21662,49.88354 -16.9338,53.2738 z"
       inkscape:transform-center-x="0.040946282"
       inkscape:transform-center-y="0.0032272191"
       transform="matrix(0.76607698,0,0,0.85124955,165.64577,17.377158)" />
    <path
       style="opacity:1;fill:#ffffff;fill-opacity:0.75879397;fill-rule:nonzero;stroke:none;stroke-width:0.66499996;stroke-linecap:butt;stroke-linejoin:miter;stroke-miterlimit:4;stroke-dasharray:none;stroke-dashoffset:0;stroke-opacity:1;paint-order:stroke fill markers"
       d="m 222.04363,155.78412 v -28.96331 h 1.26119 1.26123 v 5.39771 c 0,2.96874 0.045,5.3977 0.0995,5.3977 0.0548,0 0.66477,-0.19768 1.3558,-0.43897 l 1.25636,-0.43891 0.0402,-0.57707 c 0.0866,-1.24427 -0.22538,-3.70238 -0.62345,-4.91239 -0.46747,-1.42118 -0.41358,-1.86353 0.27082,-2.22271 1.16484,-0.6113 4.52659,0.0343 7.4561,1.43171 1.13034,0.53922 1.32569,0.589 2.77465,0.70658 1.77735,0.14438 4.3586,0.16865 5.05851,0.0481 l 0.47292,-0.0816 v -1.35274 -1.35273 l 0.59001,-0.20994 c 1.28186,-0.45593 1.94783,-0.1951 2.10387,0.82337 0.093,0.60642 0.17632,0.63908 0.92665,0.36273 0.27924,-0.10287 1.3455,-0.22644 2.41954,-0.28053 l 1.92029,-0.0964 0.37093,0.37101 c 0.49598,0.49602 0.46799,0.81837 -0.14022,1.61573 l -0.51114,0.67013 -0.24112,2.93454 c -0.74613,9.08048 -1.15864,16.0502 -1.17491,19.85179 -0.01,2.2432 0.0351,2.96593 0.26435,4.28091 0.29613,1.69774 0.53163,4.09465 0.53336,5.42836 l 9.7e-4,0.82282 h -3.26368 c -2.46103,0 -3.29403,0.0406 -3.38712,0.16468 -0.13561,0.18078 -0.92995,3.20921 -1.22258,4.66128 -0.15453,0.76677 -0.15799,0.99927 -0.0211,1.41632 0.20356,0.61796 0.36833,0.73082 1.07113,0.73336 l 0.55523,0.002 -0.0728,2.24553 c -0.0466,1.44531 -0.12656,2.31325 -0.22375,2.43554 -0.0833,0.10444 -0.33544,0.19014 -0.56076,0.19014 -0.40708,0 -0.41023,0.004 -0.4952,0.78885 -0.0783,0.7208 -0.12985,0.82585 -0.60055,1.21777 l -0.51507,0.42892 0.0826,2.03573 c 0.0454,1.11961 0.11688,2.26006 0.15899,2.53426 0.0512,0.33476 0.0286,0.4986 -0.069,0.4986 -0.27238,0 -0.39538,-0.68486 -0.49928,-2.77971 -0.0572,-1.15116 -0.12689,-2.11668 -0.15553,-2.14565 -0.0285,-0.029 -0.73285,-0.0722 -1.56526,-0.0961 l -1.51343,-0.0434 -0.0376,0.89561 c -0.053,1.26854 -0.32151,1.10853 -0.40394,-0.24077 -0.0435,-0.71282 -0.11676,-1.05068 -0.23647,-1.09225 -0.28786,-0.0999 -0.63494,-0.52631 -0.7216,-0.88661 -0.0597,-0.248 0.004,-0.46801 0.24309,-0.81588 0.38567,-0.56582 0.34153,-0.69446 -0.23836,-0.69446 -0.35532,0 -0.43398,-0.0495 -0.43398,-0.27353 0,-0.36016 0.23835,-3.32722 0.32318,-4.02334 l 0.0665,-0.54479 0.7999,-0.0895 c 0.73681,-0.0823 0.83144,-0.13067 1.19956,-0.6086 0.21977,-0.2855 0.45232,-0.6814 0.51662,-0.87974 0.15042,-0.46385 1.00192,-4.89018 1.00314,-5.21463 9.6e-4,-0.23211 -0.0905,-0.2413 -1.60712,-0.16009 -0.88442,0.0473 -1.82892,0.12071 -2.09886,0.16228 l -0.49086,0.076 0.0691,1.56959 c 0.0523,1.18981 0.12343,1.65572 0.29275,1.92558 0.27482,0.4379 0.40463,2.22147 0.19175,2.63654 -0.18781,0.36644 -0.86939,0.55156 -2.03154,0.55187 -1.2853,2.5e-4 -1.69576,-0.25418 -1.80974,-1.12222 -0.12803,-0.97627 -0.0985,-1.43456 0.12255,-1.89734 0.17216,-0.36012 0.19016,-0.68275 0.11343,-2.02794 -0.0548,-0.96086 -0.1491,-1.63832 -0.23616,-1.69641 -0.17495,-0.11695 -2.76095,-0.11178 -4.71683,0.0119 l -1.41896,0.0877 1.1e-4,-1.72523 c 1e-4,-1.85433 0.14647,-4.13479 0.43415,-6.76626 0.0989,-0.90512 0.21389,-2.1196 0.25528,-2.69887 0.1417,-1.98276 0.57112,-11.84715 0.57152,-13.13221 4e-4,-1.51231 0.0739,-1.46826 -1.51881,-0.9096 l -1.06631,0.37399 -0.0318,22.33587 -0.0321,22.33587 h -0.30707 c -0.30432,0 -0.30751,-0.0139 -0.35488,-1.4811 -0.0264,-0.81458 -0.0586,-13.68049 -0.0716,-28.5909 -0.0111,-14.91041 -0.0397,-27.12662 -0.0596,-27.14711 -0.0197,-0.0213 -0.27475,-0.0772 -0.56693,-0.12569 l -0.53129,-0.0887 -9.6e-4,28.02568 c -5e-4,15.41412 -0.0367,28.33669 -0.0808,28.71683 -0.0638,0.5564 -0.1254,0.69117 -0.31421,0.69117 -0.22797,0 -0.23456,-0.81048 -0.23456,-28.96334 z m 18.91794,22.66257 c 0.2428,-0.11873 0.45993,-0.32035 0.4825,-0.44792 0.0376,-0.21206 -0.051,-0.22434 -1.02957,-0.14618 -0.7915,0.0635 -1.37149,0.0241 -2.22465,-0.14816 -1.18924,-0.24105 -1.50837,-0.18278 -1.35038,0.24693 0.27121,0.73778 2.96502,1.06125 4.1221,0.49507 z m 0.13396,-1.15898 c 0.0801,-0.0836 0.18385,-0.34967 0.23082,-0.59175 0.0789,-0.40595 0.12902,-0.44515 0.6486,-0.50585 l 0.56298,-0.0658 0.10247,-1.09977 c 0.0567,-0.60487 0.0748,-1.12878 0.041,-1.16427 -0.0586,-0.061 -6.04088,-0.32077 -6.08036,-0.26409 -0.0111,0.016 -0.0552,0.54509 -0.0998,1.17867 l -0.0813,1.15197 h 0.5401 0.54005 l -0.0465,0.51118 c -0.0538,0.58783 0.0111,0.65291 0.91837,0.89153 0.75704,0.19955 2.51863,0.17243 2.72397,-0.0417 z m 1.60849,-4.35542 c -0.0362,-0.32883 -0.1026,-0.37166 -0.73356,-0.4746 -0.3815,-0.0623 -0.71864,-0.13782 -0.74922,-0.16844 -0.0304,-0.0305 -0.0874,-0.66097 -0.12606,-1.40144 l -0.0704,-1.3463 h -0.75673 -0.75672 l -0.22962,0.75702 c -0.1264,0.41634 -0.28119,0.75701 -0.34424,0.75701 -0.0629,0 -0.22918,0.234 -0.36904,0.52028 -0.25104,0.51367 -0.26435,0.52081 -1.04308,0.55952 l -0.78872,0.0392 -0.0385,0.48579 c -0.0385,0.48429 -0.0372,0.48588 0.50445,0.53649 0.29877,0.0279 1.66783,0.061 3.04242,0.0738 l 2.49923,0.0241 z m -7.51501,-2.09278 c 0.1149,-0.0742 0.13116,-1.51293 0.0211,-1.81363 -0.0586,-0.15931 -0.26259,-0.20829 -0.86706,-0.20829 -0.43482,0 -0.97499,0.0382 -1.20042,0.0856 l -0.40986,0.0857 0.0661,0.86102 c 0.0874,1.13475 0.23795,1.25626 1.41317,1.13968 0.48419,-0.0483 0.92403,-0.11555 0.97745,-0.15016 z m 6.21821,-2.34143 c 0.0994,-0.2483 0.43673,-1.44787 0.74978,-2.66595 0.68145,-2.65149 0.84716,-3.07049 1.21452,-3.07049 0.22704,0 0.25915,0.0575 0.20169,0.36206 -0.0376,0.19932 -0.10777,0.58419 -0.15602,0.8557 l -0.0876,0.4937 h 2.91479 2.91479 l -10e-5,-0.36204 c -2.5e-4,-0.72498 -0.26136,-3.28775 -0.45274,-4.44323 -0.3981,-2.40335 -0.64622,-4.84915 -0.54026,-5.32482 0.0573,-0.2574 0.10555,-0.98454 0.10727,-1.61609 l 0.004,-1.14822 -1.72379,-0.0368 c -1.24116,-0.0269 -1.73848,-0.0826 -1.77619,-0.20121 -0.0402,-0.12629 0.34491,-0.16467 1.65331,-0.16467 1.00199,0 1.73786,-0.0544 1.78369,-0.13166 0.0426,-0.0724 0.13742,-0.70197 0.20989,-1.39891 0.10518,-1.00995 0.0989,-1.28847 -0.0309,-1.37221 -0.12459,-0.0801 -0.12855,-0.14836 -0.0165,-0.28856 0.0799,-0.1012 0.18444,-0.846 0.23151,-1.65568 0.0765,-1.3165 0.0637,-1.47218 -0.1223,-1.47218 -0.28041,0 -0.26276,-0.19112 0.0381,-0.41175 0.20732,-0.15195 0.25973,-0.40355 0.33229,-1.59255 l 0.0862,-1.41192 -2.06647,-0.036 c -2.75277,-0.0483 -2.76851,-0.28718 -0.0211,-0.33572 l 2.04432,-0.036 0.0708,-0.42463 c 0.039,-0.23352 0.21132,-2.27167 0.38314,-4.52918 0.17178,-2.25755 0.36677,-4.25384 0.43322,-4.43619 0.0665,-0.18237 0.29358,-0.58064 0.50481,-0.88502 0.73184,-1.05458 0.44506,-1.24503 -1.68541,-1.11935 -1.24029,0.0732 -1.64872,0.15134 -2.24567,0.43124 l -0.72965,0.3418 -0.0132,0.87066 c -0.0246,1.43421 -0.0964,1.61473 -0.80603,2.02124 -0.93511,0.53579 -4.38915,1.93095 -5.57021,2.24994 -1.00951,0.27266 -1.03658,0.27331 -1.29273,0.0315 -0.31701,-0.29943 -0.34419,-0.94626 -0.0578,-1.37318 0.23338,-0.34764 0.80185,-0.62169 2.75993,-1.33031 1.70048,-0.61544 2.09237,-0.80002 2.00653,-0.94504 -0.0366,-0.062 -0.78681,-0.11496 -1.66714,-0.11755 -0.8803,-0.002 -2.48643,-0.0565 -3.56911,-0.11893 -1.65952,-0.0961 -2.08518,-0.16527 -2.71158,-0.44191 -0.40867,-0.18038 -1.1687,-0.51581 -1.68894,-0.7453 -1.99419,-0.87957 -4.98237,-1.44572 -5.65308,-1.07107 -0.37503,0.20945 -0.34944,0.58134 0.12937,1.87953 l 0.40386,1.09508 0.001,5.26608 c 0.001,6.55077 -0.30909,13.38255 -0.87552,19.22111 -0.16863,1.73782 -0.34502,4.09272 -0.39206,5.23314 l -0.0857,2.07352 h 2.91639 c 2.27485,0 2.9057,-0.0362 2.86793,-0.16466 -0.0265,-0.0905 -0.0808,-0.53486 -0.1202,-0.98743 l -0.0718,-0.8228 h 0.43949 0.43948 l 0.01,2.40265 c 0.004,1.32144 0.0475,2.66922 0.0946,2.99506 l 0.0852,0.59245 0.80851,0.0396 0.8085,0.0396 -0.0846,-3.03482 c -0.0802,-2.87273 -0.0724,-3.0348 0.14367,-3.0348 0.39526,0 0.53083,0.28695 0.53083,1.12342 0,0.4441 0.0239,0.83233 0.053,0.8627 0.0563,0.0587 2.93416,-0.10722 3.81272,-0.21984 l 0.52349,-0.0671 0.16179,-0.84961 c 0.15338,-0.80562 0.18028,-0.84962 0.51939,-0.84962 0.30535,0 0.3485,0.0434 0.29503,0.29623 -0.253,1.19714 -0.69935,3.62501 -0.81681,4.44323 -0.0778,0.54302 -0.16744,1.15257 -0.19886,1.35449 -0.0666,0.42829 0.20707,0.59838 0.98539,0.61194 0.42973,0.008 0.49808,-0.0382 0.65997,-0.44286 z m -15.551,-29.50964 c 1.24035,-0.4312 1.55141,-0.6805 1.43791,-1.15251 -0.0464,-0.19312 -0.15421,-0.34753 -0.23971,-0.34279 -0.0855,0.002 -0.66605,0.19748 -1.29034,0.42786 -0.94802,0.35021 -1.14193,0.4697 -1.1766,0.72509 -0.047,0.34672 0.0487,0.6816 0.19491,0.6816 0.0539,0 0.53724,-0.15294 1.07397,-0.33925 z m 14.76841,-4.52348 c 2.41,-0.94291 3.83169,-1.58108 4.00346,-1.79713 0.0992,-0.1247 0.15339,-0.79568 0.15899,-1.96676 0.01,-2.00969 -0.0718,-2.23498 -0.75648,-2.09203 -0.37409,0.0783 -0.38897,0.10856 -0.4657,0.95644 -0.0435,0.48167 -0.0798,1.3497 -0.0803,1.92894 l -9.4e-4,1.05323 -1.88822,0.64501 c -2.33679,0.79824 -3.20452,1.2322 -3.2594,1.63009 -0.0622,0.45211 0.40581,0.37892 2.28888,-0.35779 z"
       id="path1001"
       inkscape:connector-curvature="0" />
    <path
       style="opacity:1;fill:#ffffff;fill-opacity:0.75879397;fill-rule:nonzero;stroke:none;stroke-width:0.66499996;stroke-linecap:butt;stroke-linejoin:miter;stroke-miterlimit:4;stroke-dasharray:none;stroke-dashoffset:0;stroke-opacity:1;paint-order:stroke fill markers"
       d="m 245.13809,144.89219 c -0.14121,-0.0119 -0.28841,-0.0335 -0.32753,-0.0493 -0.14729,-0.059 -0.10949,-0.17143 0.0739,-0.22032 0.0549,-0.016 0.76888,-0.0376 1.58675,-0.0511 0.81786,-0.0139 1.58797,-0.0343 1.71134,-0.046 0.12343,-0.0119 0.22447,-0.016 0.22447,-0.0119 0,0.004 -0.0288,0.0465 -0.064,0.09 -0.0352,0.0435 -0.0641,0.10187 -0.0641,0.12947 0,0.0681 0.0963,0.13325 0.19649,0.13325 0.0452,0 0.0897,0.0119 0.0984,0.0269 0.0197,0.0318 -3.03965,0.0306 -3.4355,-0.001 z"
       id="path1003"
       inkscape:connector-curvature="0" />
    <path
       style="opacity:1;fill:#ffffff;fill-opacity:0.75879397;fill-rule:nonzero;stroke:none;stroke-width:0.66499996;stroke-linecap:butt;stroke-linejoin:miter;stroke-miterlimit:4;stroke-dasharray:none;stroke-dashoffset:0;stroke-opacity:1;paint-order:stroke fill markers"
       d="m 244.84048,148.34418 c -0.43197,-0.0213 -0.58691,-0.0627 -0.58691,-0.15274 0,-0.14061 0.25723,-0.16071 2.35293,-0.18278 l 1.75041,-0.0178 -0.0377,0.0758 c -0.041,0.0828 -0.0239,0.14478 0.0573,0.20592 0.13595,0.10243 0.14286,0.10187 -1.52569,0.0978 -0.88568,-0.002 -1.79036,-0.0139 -2.01043,-0.0241 z"
       id="path1005"
       inkscape:connector-curvature="0" />
    <path
       style="opacity:1;fill:#ffffff;fill-opacity:0.75879397;fill-rule:nonzero;stroke:none;stroke-width:0.66499996;stroke-linecap:butt;stroke-linejoin:miter;stroke-miterlimit:4;stroke-dasharray:none;stroke-dashoffset:0;stroke-opacity:1;paint-order:stroke fill markers"
       d="m 244.55332,151.52954 c -0.24159,-0.0292 -0.30479,-0.0765 -0.29475,-0.22053 0.0111,-0.15075 0.0709,-0.17741 0.46443,-0.2076 0.46801,-0.0356 3.16269,-0.0326 3.12819,0.002 -0.0197,0.0178 -0.39444,0.0368 -1.08833,0.0523 -1.78901,0.0394 -1.95246,0.0517 -1.98834,0.14936 -0.0346,0.0938 0.18306,0.1599 0.62174,0.18853 0.14023,0.0119 0.27192,0.0269 0.29307,0.0389 0.0484,0.028 -0.8989,0.0241 -1.13601,-0.002 z"
       id="path1007"
       inkscape:connector-curvature="0" />
    <path
       style="opacity:1;fill:#ffffff;fill-opacity:0.75879397;fill-rule:nonzero;stroke:none;stroke-width:0.66499996;stroke-linecap:butt;stroke-linejoin:miter;stroke-miterlimit:4;stroke-dasharray:none;stroke-dashoffset:0;stroke-opacity:1;paint-order:stroke fill markers"
       d="m 246.31757,155.01236 c -1.2092,-0.0179 -1.85035,-0.0445 -1.92682,-0.0778 -0.13,-0.0567 -0.15009,-0.15593 -0.0416,-0.20829 0.0402,-0.0179 0.91187,-0.0457 1.93726,-0.059 l 1.86431,-0.0241 -1e-5,0.20641 c -3e-5,0.11336 -0.004,0.20286 -0.0111,0.19847 -0.004,-0.002 -0.82589,-0.0213 -1.82262,-0.0364 z"
       id="path1009"
       inkscape:connector-curvature="0" />
    <path
       sodipodi:type="star"
       style="opacity:1;fill:#006680;fill-opacity:0.75879397;fill-rule:nonzero;stroke:none;stroke-width:0.99459976;stroke-linecap:butt;stroke-linejoin:miter;stroke-miterlimit:4;stroke-dasharray:none;stroke-dashoffset:0;stroke-opacity:1;paint-order:stroke fill markers"
       id="path921-4-9-5"
       sodipodi:sides="6"
       sodipodi:cx="90.192093"
       sodipodi:cy="161.51494"
       sodipodi:r1="55.900375"
       sodipodi:r2="39.527546"
       sodipodi:arg1="0.83136255"
       sodipodi:arg2="1.3549613"
       inkscape:flatsided="true"
       inkscape:rounded="0.09"
       inkscape:randomized="0"
       d="m 127.86166,202.81694 c -3.71718,3.39027 -49.808727,13.49585 -54.60337,11.9718 -4.794642,-1.52404 -36.592105,-36.3877 -37.669567,-41.302 -1.077462,-4.91431 13.216622,-49.88355 16.933803,-53.27381 3.71718,-3.39026 49.808724,-13.49584 54.603374,-11.9718 4.79464,1.52405 36.5921,36.38771 37.66956,41.30201 1.07746,4.9143 -13.21662,49.88354 -16.9338,53.2738 z"
       inkscape:transform-center-x="0.031601871"
       inkscape:transform-center-y="0.0028684527"
       transform="matrix(0.59127742,0,0,0.75605826,289.2769,102.27353)" />
    <path
       style="fill:#ffffff;stroke-width:0.99999994"
       d="m 327.50875,239.1012 c -1.78117,-0.41613 -3.34882,-1.96632 -3.87756,-3.83433 l -0.21401,-0.75609 -0.0214,0.70079 c -0.0132,0.38544 -0.19973,0.77324 -0.41756,0.86176 -0.5734,0.23301 -2.42805,0.18993 -2.80777,-0.065 -0.25591,-0.17183 -0.30875,-1.79247 -0.25039,-7.67979 l 0.074,-7.46187 0.6663,-0.70517 c 0.48309,-0.51128 1.00009,-0.73915 1.88061,-0.82872 l 1.21437,-0.12371 1.24922,-3.16205 c 1.72415,-4.36426 1.66687,-4.31933 5.64129,-4.42671 l 3.22648,-0.0873 0.0718,-2.43181 0.0719,-2.43177 1.63676,-0.077 1.63675,-0.0772 0.36635,-1.77897 0.36636,-1.77896 1.44276,-0.0796 c 1.60493,-0.0887 1.50818,-0.1949 1.93989,2.13172 l 0.28236,1.52179 10.68693,0.0691 10.6869,0.069 0.0647,14.56639 c 0.0452,10.17136 -0.0165,14.6195 -0.2044,14.74251 -0.14795,0.0968 -0.56656,0.16408 -0.93008,0.14955 -0.48184,-0.0199 -0.69946,-0.19983 -0.80329,-0.66635 -0.13181,-0.59229 -0.17773,-0.55686 -0.61802,0.47709 -0.51632,1.21251 -1.80725,2.5603 -2.85755,2.98344 -0.3634,0.14638 -1.25299,0.26626 -1.97686,0.26632 -2.69556,3e-4 -4.74353,-2.06971 -5.07123,-5.12575 l -0.17941,-1.6734 -0.0342,1.76143 c -0.026,1.3383 -0.12953,1.80008 -0.43034,1.92236 -0.21783,0.0885 -3.8834,0.1609 -8.14568,0.1609 -7.68538,0 -7.75128,-0.006 -7.94748,-0.56638 -0.18751,-0.53672 -0.21425,-0.52443 -0.51126,0.2349 -0.37239,0.9521 -1.61812,2.35512 -2.51459,2.83214 -0.92464,0.49203 -2.24426,0.6345 -3.39227,0.36627 z m 2.43031,-0.49221 c 3.45299,-1.01556 4.59944,-5.87291 2.014,-8.53301 -1.09595,-1.12761 -1.97119,-1.53115 -3.32075,-1.53115 -1.89406,0 -3.42659,1.09116 -4.28266,3.04925 -0.92,2.10426 -0.33723,4.71074 1.35965,6.08134 1.41834,1.14562 2.61256,1.40918 4.22976,0.93357 z m 27.26275,-0.0343 c 2.59748,-0.94863 3.89442,-3.6128 3.12435,-6.41798 -1.51151,-5.506 -9.1589,-4.31721 -9.1589,1.42371 0,2.35727 1.16033,4.16023 3.16422,4.91674 1.20728,0.45574 1.79155,0.47152 2.87033,0.0776 z m -34.27737,-4.98205 c 0.0954,-1.7458 0.24283,-2.32936 0.85185,-3.37252 2.01413,-3.44992 6.15577,-4.06877 8.58125,-1.28226 l 1.03213,1.18576 v -9.00929 -9.00929 h -2.82375 c -2.01604,0 -2.96699,0.10622 -3.32455,0.37148 -0.27547,0.20429 -1.10449,1.92101 -1.84225,3.81484 l -1.34142,3.4434 -1.38494,0.12152 c -2.34096,0.20558 -2.30327,0.0653 -2.30327,8.58499 v 7.26234 h 1.21976 1.21979 z m 2.26633,-14.12233 c 0.0675,-0.18635 0.59634,-1.62138 1.17515,-3.1891 l 1.05242,-2.8504 h 2.61802 2.61805 l -0.0706,3.11554 -0.0704,3.11556 -3.72266,0.0735 c -2.93959,0.0581 -3.69683,0.001 -3.59989,-0.26514 z m 6.94697,-2.85767 v -2.65154 h -2.22764 -2.2276 l -0.90223,2.46584 c -0.49624,1.35623 -0.90225,2.54942 -0.90225,2.65155 0,0.10221 1.40845,0.18576 3.12987,0.18576 h 3.12985 z m 17.84298,17.1687 c 0.21955,-3.0648 1.17214,-4.78535 3.25919,-5.88671 2.29845,-1.21291 4.86285,-0.74226 6.61566,1.21415 1.14675,1.27995 1.57761,2.57186 1.57761,4.73033 0,1.81214 0.0176,1.86458 0.62597,1.86458 h 0.62597 v -14.31828 -14.31828 h -14.14175 -14.14175 l -0.0679,11.46788 c -0.0372,6.30737 -0.0358,12.75059 0.004,14.31831 l 0.0711,2.85039 h 7.71744 7.71742 z m -4.87631,-9.41294 -0.0718,-2.58525 H 342.58 c -2.92087,0 -2.73134,0.306 -2.62769,-4.24246 l 0.0724,-3.18185 2.50388,-0.0379 2.50388,-0.038 0.0718,-2.54715 0.0718,-2.54714 h 3.62158 3.62154 v 2.51895 2.51898 h 2.50389 2.50388 v 3.71214 3.71215 h -2.50388 -2.50389 v 2.65153 2.65156 h -3.62154 -3.62158 z m 6.81401,-0.32217 v -2.64226 l 2.52227,-0.0755 2.52223,-0.0755 v -3.18185 -3.18184 l -2.52223,-0.0755 -2.52227,-0.0755 v -2.64226 -2.64226 h -3.12079 -3.12078 l -0.0718,2.58525 -0.0718,2.58525 -2.56648,0.0755 -2.56649,0.0755 v 3.29586 3.29589 l 2.56649,0.0755 2.56648,0.0755 0.0718,2.58522 0.0718,2.58525 h 3.12078 3.12079 z m -18.02797,7.41503 c 0,-0.51761 -0.12672,-0.79547 -0.36254,-0.79547 -0.29412,0 -0.31315,0.15016 -0.10075,0.79547 0.144,0.43749 0.30716,0.79545 0.36255,0.79545 0.0554,0 0.10074,-0.35796 0.10074,-0.79545 z m 18.6078,-2.04276 c 2.18679,-2.03326 4.88456,-1.82507 7.05702,0.54458 1.0864,1.185 1.18091,1.24288 0.71475,0.43754 -0.29547,-0.51042 -1.06876,-1.31581 -1.71843,-1.78976 -1.02088,-0.7448 -1.38978,-0.86117 -2.71784,-0.8574 -1.12588,0.004 -1.79799,0.16269 -2.51439,0.59661 -1.18761,0.71932 -2.31649,2.16694 -2.52956,3.24376 -0.13512,0.68252 -0.0894,0.64455 0.32111,-0.26744 0.26319,-0.58456 0.88748,-1.44313 1.38734,-1.90789 z m -26.24462,-0.7229 c 1.55301,-0.85092 3.74475,-0.75545 5.15761,0.22474 0.95804,0.6646 1.03663,0.68524 0.60128,0.15771 -1.00874,-1.22224 -3.59008,-1.73203 -5.30443,-1.04762 -0.85537,0.34154 -2.24586,1.71114 -2.72934,2.6884 -0.60356,1.22 -0.39187,1.12623 0.45955,-0.20357 0.4699,-0.73389 1.23698,-1.50284 1.81533,-1.81974 z m 14.7698,-23.15311 c -0.34452,-2.26932 -0.28873,-2.1875 -1.49224,-2.1875 -1.06962,0 -1.11973,0.0364 -1.37098,0.9943 -0.54161,2.06525 -0.46471,2.18752 1.37533,2.18752 h 1.63888 z"
       id="path1022"
       inkscape:connector-curvature="0" />
    <path
       style="fill:#ffffff;stroke-width:0.99999994"
       d="m 438.10774,178.48308 c -8.50344,-1.37556 -7.871,-1.31303 -13.36733,-1.3215 -2.71632,-0.004 -5.48015,-0.0638 -6.54538,-0.1414 -5.40934,-0.3939 -5.54122,-0.4173 -6.39255,-1.13327 -0.30471,-0.25624 -0.66046,-0.50391 -0.79059,-0.55042 -0.23584,-0.0844 -0.23799,-0.0899 -0.65536,-1.67552 -0.49902,-1.89599 -0.61209,-2.58718 -0.61209,-3.7412 0,-1.14281 0.19226,-2.12513 0.94748,-4.84048 1.41463,-5.08629 3.84631,-14.22123 3.84631,-14.44919 0,-0.0348 0.15305,-0.50421 0.34001,-1.04299 0.45581,-1.31321 0.50923,-1.81198 0.37516,-3.50456 -0.18293,-2.30986 -0.0935,-3.96632 0.23333,-4.32315 0.20659,-0.22555 1.54288,-0.36405 4.64427,-0.48135 1.60561,-0.0607 3.03834,-0.13504 3.18382,-0.16488 l 0.26454,-0.0545 -0.0187,-3.45314 c -0.0165,-3.02037 -0.006,-3.50092 0.0822,-3.83443 0.29538,-1.11751 0.80395,-1.38566 3.37167,-1.77781 2.45377,-0.37477 3.73065,-0.46087 5.77713,-0.38951 3.89633,0.13583 4.41896,0.31435 4.83287,1.65046 0.0959,0.30964 0.11417,0.60192 0.1122,1.79627 -0.001,1.27686 -0.027,1.60378 -0.23608,3.11708 -0.14467,1.04592 -0.24625,2.07707 -0.26658,2.70404 l -0.0329,1.01344 0.85281,0.0646 c 0.8995,0.0681 1.67431,0.23064 3.18825,0.66874 0.50704,0.14678 1.35841,0.33321 1.89193,0.41437 0.53352,0.0811 1.08161,0.20503 1.21799,0.27527 0.44782,0.23069 0.52345,0.55423 0.70152,3.00212 0.11453,1.57407 0.44799,3.88549 0.9214,6.38624 0.18152,0.9589 0.49626,2.69441 0.69942,3.85673 0.55971,3.2021 0.80855,4.36791 1.55185,7.2705 1.14149,4.45752 1.3709,5.89098 1.37299,8.57906 7.1e-4,0.92982 -0.0202,1.93799 -0.0464,2.24035 l -0.0477,0.54977 0.31977,0.16328 c 0.5098,0.26029 1.79251,0.66235 2.72555,0.85433 0.86155,0.1772 1.38314,0.4251 1.63627,0.7775 0.18763,0.26121 0.11393,0.39315 -0.36324,0.64996 -0.34233,0.18437 -0.652,0.23557 -1.82581,0.30262 -1.10706,0.0633 -1.46554,0.11913 -1.65335,0.25774 -0.41254,0.3046 -1.59019,0.40282 -4.40035,0.367 -1.47041,-0.0179 -3.55848,-8e-5 -4.64016,0.0414 -1.68668,0.0646 -2.14167,0.0471 -3.19586,-0.12331 z m 2.39689,-1.15562 c 0.27041,-0.11455 0.94892,-0.44575 1.50777,-0.73583 1.10697,-0.57464 1.87055,-0.80449 2.32095,-0.69873 0.39712,0.0933 1.57333,0.63042 2.32924,1.06367 0.72852,0.41759 1.13848,0.45944 1.48903,0.15195 0.47731,-0.41864 0.79452,-1.187 1.02867,-2.49167 0.0905,-0.50444 0.1117,-0.95483 0.10702,-2.26728 -0.005,-1.48206 -0.0241,-1.75574 -0.1985,-2.87838 -0.24816,-1.59882 -0.48984,-2.70335 -1.30624,-5.96952 -0.80288,-3.21209 -1.01745,-4.27774 -1.33957,-6.6528 -0.16261,-1.19888 -0.37549,-2.38553 -0.62563,-3.48692 -0.5198,-2.28907 -0.84622,-4.01214 -0.89488,-4.72376 -0.0224,-0.32846 -0.0608,-0.61839 -0.0851,-0.64432 -0.0681,-0.0722 -0.38764,2.59286 -0.76659,6.39289 -0.38048,3.81513 -0.46125,4.56633 -0.68388,6.36014 -0.15289,1.23189 -0.15306,1.2366 -0.0357,1.63779 0.28384,0.97048 0.21887,1.79457 -0.19794,2.5112 -0.60496,1.04008 -1.8099,1.28522 -2.46364,0.50115 -0.35533,-0.42618 -0.52067,-0.98752 -0.52191,-1.77194 -0.001,-1.05228 0.14237,-1.68123 0.55399,-2.41809 0.19752,-0.35369 0.38524,-0.76098 0.41711,-0.90515 0.0341,-0.15413 0.0514,-2.19948 0.0416,-4.96413 -0.0148,-4.45799 -0.0606,-6.44598 -0.14598,-6.44508 -0.0211,2e-4 -0.11848,0.48759 -0.21646,1.08304 -0.1686,1.0236 -0.5916,3.18801 -2.49345,12.7585 -1.16224,5.84863 -1.35637,7.03874 -1.47853,9.06411 -0.10432,1.72991 0.0985,3.60839 0.51851,4.80172 0.20379,0.57905 0.36566,0.73059 0.98904,0.92613 0.45799,0.14379 1.59004,0.0392 2.15107,-0.19869 z m -3.60092,-0.51359 c -0.30172,-1.01263 -0.38017,-1.92761 -0.34196,-3.98882 0.0515,-2.77537 0.0487,-2.7576 2.09982,-13.31359 2.0261,-10.42714 2.30401,-12.03858 2.30401,-13.35995 v -0.60885 l -0.53778,-0.0684 c -0.29578,-0.0376 -1.14621,-0.27827 -1.88985,-0.53471 -0.74366,-0.25644 -1.61483,-0.51761 -1.93596,-0.58037 -1.14219,-0.22327 -4.35315,-0.53583 -8.81937,-0.8585 -1.6225,-0.11713 -3.32338,-0.25796 -3.77972,-0.31277 -1.33781,-0.16069 -3.00111,-0.13484 -3.3551,0.0523 -0.47946,0.25335 -1.32552,0.45398 -2.45277,0.58162 -0.57464,0.0651 -1.13998,0.15214 -1.25628,0.19352 l -0.21148,0.0754 -2.41511,8.97836 c -1.32832,4.93811 -2.71889,10.04821 -3.09017,11.35578 -0.77189,2.71851 -1.03552,3.96809 -1.0864,5.14988 -0.0463,1.07405 0.0629,1.85341 0.5138,3.66977 0.35016,1.41053 0.35687,1.42785 0.63101,1.62854 0.98825,0.72355 2.05315,1.01455 4.487,1.22612 0.38873,0.0338 1.08014,0.10879 1.53648,0.16647 1.84816,0.23382 4.02953,0.29684 6.20478,0.17919 2.51474,-0.13585 4.48373,-0.0346 7.80786,0.40166 3.25076,0.42663 4.34428,0.54753 5.08128,0.56173 l 0.68696,0.0139 z M 412.0606,171.676 c -0.0177,-0.08 0.0344,-0.39368 0.11638,-0.69732 0.0818,-0.30361 0.14879,-0.57729 0.14879,-0.60819 0,-0.031 -0.0963,-0.0292 -0.21399,0.004 -0.11762,0.0328 -0.2256,0.0272 -0.23979,-0.014 -0.0543,-0.15215 0.1717,-1.04971 0.4149,-1.64748 0.30363,-0.74631 1.32951,-2.2294 1.32951,-1.92209 0,0.0233 -0.0835,0.13306 -0.18516,0.24401 -0.33744,0.36736 -1.41278,2.56842 -1.41278,2.89183 0,0.1412 0.26014,0.18713 0.40702,0.072 0.082,-0.064 0.26911,-0.42941 0.41616,-0.81179 0.27882,-0.72515 0.50501,-1.14137 0.56457,-1.03897 0.0608,0.10477 -0.14945,0.68791 -0.56373,1.56306 -0.39499,0.83431 -0.63564,1.55973 -0.63829,1.92421 -10e-4,0.21971 -0.0974,0.24618 -0.14351,0.0396 z m 1.39925,-0.30487 c -0.0527,-0.23636 -0.01,-0.66398 0.0642,-0.63621 0.0337,0.014 0.0704,0.14916 0.0817,0.30344 0.024,0.33415 -0.0884,0.59054 -0.14599,0.33277 z m 20.80669,-1.66938 c 0,-0.18854 0.0256,-0.29601 0.0613,-0.2579 0.0337,0.0358 0.0613,0.18138 0.0613,0.32321 0,0.14181 -0.0276,0.25794 -0.0613,0.25794 -0.0337,0 -0.0613,-0.14559 -0.0613,-0.32325 z m -0.66975,-0.98394 c -0.005,-0.26344 0.56669,-2.17973 0.65081,-2.17973 0.0658,0 -0.0745,0.5274 -0.30266,1.13797 -0.13611,0.36439 -0.26878,0.81609 -0.29471,1.00382 l -0.0471,0.34131 z m -15.54003,-2.98935 c -0.12119,-0.0841 -0.093,-1.73784 0.0479,-2.83576 0.0674,-0.52306 0.25789,-1.64042 0.42372,-2.48312 0.16585,-0.84266 0.57005,-3.02988 0.89826,-4.86052 0.32815,-1.83062 0.62637,-3.48771 0.66268,-3.6824 0.0783,-0.42065 0.1412,-0.46816 0.92109,-0.69653 1.50279,-0.44013 3.44993,-0.39599 6.80421,0.15413 1.92151,0.31518 2.37683,0.44827 2.67222,0.78102 0.33412,0.37641 0.25901,1.47144 -0.30874,4.50031 -0.41511,2.21453 -0.55733,3.29606 -0.79209,6.02284 -0.0826,0.95888 -0.18263,2.0644 -0.22241,2.45667 l -0.0723,0.71325 -5.47889,-0.008 c -3.01342,-0.004 -5.51348,-0.0323 -5.55573,-0.0617 z m 10.84274,-1.9972 c 0.24791,-2.77884 0.64913,-5.80003 1.22136,-9.19681 0.15371,-0.91262 0.25749,-1.69384 0.23055,-1.73603 -0.10074,-0.15771 -2.22982,-0.77023 -3.7365,-1.07499 -1.05575,-0.21357 -4.54673,-0.18337 -5.42758,0.047 -0.38239,0.0999 -0.71831,0.2063 -0.7465,0.23626 -0.0748,0.0793 -1.36454,6.81372 -1.65314,8.63113 -0.21055,1.32594 -0.42813,2.90113 -0.59478,4.30618 l -0.0428,0.36063 4.44751,-0.0597 c 2.44613,-0.033 4.80702,-0.0252 5.24645,0.016 0.43945,0.0419 0.825,0.07 0.8568,0.062 0.0318,-0.008 0.12107,-0.72451 0.19862,-1.59254 z m -6.35421,-0.27422 c -0.16161,-0.3349 -0.15667,-0.98107 0.017,-2.18959 0.11011,-0.76632 0.14894,-1.21894 0.11011,-1.28555 -0.0387,-0.0666 -0.17504,-0.0653 -0.38713,0.004 -0.4191,0.13663 -0.86371,0.13703 -0.86371,0.001 0,-0.0582 -0.0382,-0.10578 -0.085,-0.10578 -0.17417,0 -0.20752,-1.09334 -0.0789,-2.58767 0.0892,-1.03649 0.1085,-1.05805 1.07388,-1.20067 0.38113,-0.0564 0.72713,-0.15114 0.76891,-0.21076 0.0914,-0.13047 0.17366,-0.52346 0.35085,-1.67549 l 0.1333,-0.8669 0.28596,-0.18974 c 0.35301,-0.23421 1.56967,-0.26431 1.92997,-0.0478 0.19962,0.11993 0.23047,0.18257 0.23047,0.46703 0,0.18058 -0.0574,0.68016 -0.12754,1.10997 -0.0701,0.42984 -0.11306,0.84626 -0.0955,0.92537 0.0373,0.16727 0.32498,0.31451 0.92977,0.47626 0.64724,0.17303 0.64238,0.1603 0.58297,1.54077 -0.0277,0.64155 -0.0833,1.45469 -0.12359,1.807 l -0.0733,0.64056 -0.2528,0.0696 c -0.13907,0.0382 -0.57419,0.0372 -0.96698,-0.004 -0.83918,-0.0844 -0.76638,-0.19995 -0.86341,1.36991 -0.0363,0.58815 -0.11737,1.27145 -0.17978,1.51841 -0.11355,0.44874 -0.11392,0.4491 -0.44553,0.4491 -0.1825,0 -0.66143,0.0305 -1.06428,0.0678 -0.59775,0.0552 -0.74595,0.0397 -0.80593,-0.0846 z m 2.05348,-0.65565 c 0.0212,-0.0361 0.13018,-1.36588 0.17211,-2.09969 0.0656,-1.15003 0.0966,-1.18355 1.13499,-1.22475 1.02598,-0.0407 0.96191,0.0589 1.02486,-1.59294 0.0456,-1.194 0.0943,-1.0966 -0.64171,-1.28162 -0.53102,-0.13346 -0.87281,-0.41113 -0.87213,-0.70837 4.5e-4,-0.16448 0.20161,-1.71837 0.27728,-2.14123 0.0245,-0.13762 -0.0943,-0.15155 -0.90356,-0.10578 l -0.93192,0.0527 -0.0826,0.634 c -0.10087,0.77354 -0.32307,1.96485 -0.39643,2.12518 -0.0297,0.0646 -0.26792,0.14895 -0.5296,0.18715 -0.26165,0.0384 -0.63191,0.0981 -0.82277,0.13264 l -0.34698,0.0628 -0.0677,0.78439 c -0.0373,0.4314 -0.0679,0.97379 -0.0679,1.20534 0,0.55363 0.18195,0.69732 0.67093,0.52978 0.44292,-0.15174 0.71312,-0.14399 0.7937,0.0229 0.0788,0.16328 0.0132,1.07558 -0.1716,2.4045 -0.0685,0.49092 -0.12458,0.95866 -0.12491,1.03943 -4.8e-4,0.12231 0.15618,0.13405 0.9368,0.0702 0.5155,-0.0422 0.94267,-0.0857 0.94927,-0.0971 z m 25.06323,13.66908 c -0.17077,-0.12609 -0.338,-0.12609 -0.338,0 0,0.0582 0.1037,0.10243 0.23046,0.0981 0.18489,-0.006 0.20617,-0.0254 0.10764,-0.0981 z m -7.0985,-11.5073 c 0.0846,-0.10165 0.23359,-0.4378 0.33128,-0.74672 0.22178,-0.70115 0.24661,-1.47309 0.0647,-2.00869 -0.32318,-0.95137 -1.27261,-0.43245 -1.48986,0.81429 -0.1026,0.58885 -0.0905,0.95928 0.0484,1.48562 0.19326,0.732 0.65051,0.93122 1.04552,0.4555 z m -1.42707,-0.23021 c -0.11306,-0.263 -0.14006,-0.46171 -0.13957,-1.03023 7.1e-4,-0.852 0.15833,-1.47499 0.53558,-2.11715 l 0.25634,-0.43635 h -0.26411 c -0.2169,0 -0.3004,0.0625 -0.46709,0.34898 -0.21845,0.37554 -0.39958,1.22118 -0.39899,1.86271 6.9e-4,0.83517 0.26554,1.69787 0.52111,1.69787 0.0788,0 0.0706,-0.0609 -0.0434,-0.32583 z m 1.76162,-3.92423 c 0.0527,-0.12907 0.0956,-0.41455 0.0956,-0.63421 0,-0.21964 0.20787,-2.17046 0.46196,-4.33509 0.67115,-5.71764 0.8854,-8.03466 0.98601,-10.6633 l 0.0431,-1.12736 -0.41401,-0.21984 c -0.22771,-0.12093 -0.57444,-0.21986 -0.77054,-0.21986 -0.32618,0 -0.35379,0.0179 -0.32442,0.21117 0.0324,0.21395 0.37096,0.78366 0.5143,0.86583 0.0632,0.0361 0.0635,0.42932 10e-4,2.04622 -0.0999,2.62466 -0.55149,9.50376 -0.84397,12.85601 -0.0543,0.62345 -0.0828,1.2059 -0.0631,1.2944 0.052,0.23294 0.20229,0.19748 0.31284,-0.074 z m -0.56852,-0.76898 c 0.21167,-3.67643 0.50944,-13.11238 0.4545,-14.40262 -0.0607,-1.42458 -0.21229,-1.80992 -0.88136,-2.2403 -0.80182,-0.51577 -2.01628,-0.77155 -4.50172,-0.94808 -0.89574,-0.0636 -2.70726,-0.2331 -4.02557,-0.37661 -4.43477,-0.48277 -10.79238,-0.79045 -12.16886,-0.58891 -0.47322,0.0692 -1.64864,0.17104 -2.61201,0.22605 -1.6714,0.0955 -2.38558,0.23299 -2.69656,0.51915 -0.2599,0.23915 -0.32468,2.11234 -0.099,2.8626 0.11146,0.37037 0.1575,0.386 0.30615,0.10365 0.0872,-0.16586 0.10998,-0.37962 0.10617,-1.00385 -0.004,-0.53304 0.0224,-0.83975 0.0778,-0.93527 0.0916,-0.15772 0.45903,-0.21859 2.39762,-0.39853 1.75912,-0.16329 5.62353,-0.059 10.01783,0.26981 7.04589,0.52752 9.38032,0.79195 12.01521,1.3611 l 0.58385,0.12609 0.041,1.47871 c 0.0969,3.5024 0.1815,10.3627 0.14385,11.67521 -0.0562,1.95209 0.0515,2.69393 0.42984,2.96636 0.29571,0.21287 0.36592,0.0943 0.41134,-0.69459 z m -5.9828,-20.23459 c 0.17969,-1.78903 0.20811,-2.31791 0.21575,-4.01519 0.009,-1.66331 -0.009,-2.04609 -0.10814,-2.5672 -0.0642,-0.33683 -0.16111,-0.65213 -0.21509,-0.70067 -0.23506,-0.21122 -3.08047,-0.35688 -5.59883,-0.28661 -4.0313,0.11237 -5.41049,0.31389 -6.08443,0.88874 -0.65235,0.55639 -0.73177,1.13323 -0.62885,4.56766 0.0665,2.21699 0.12181,2.72733 0.34079,3.14349 0.32849,0.62424 0.42677,-0.004 0.46964,-3.00646 0.0192,-1.34984 0.0596,-2.3875 0.095,-2.44362 0.13001,-0.20656 0.81641,-0.56476 1.46937,-0.76699 0.57204,-0.17719 1.16598,-0.23036 3.69268,-0.33103 4.12852,-0.16448 4.73796,-0.0587 5.15188,0.89412 0.0823,0.18934 0.18601,0.53458 0.23049,0.76707 0.10777,0.56337 0.095,2.32099 -0.0287,3.90515 -0.0542,0.69497 -0.0985,1.41721 -0.0985,1.605 0,0.3163 0.017,0.34464 0.23046,0.38522 0.12672,0.0241 0.327,0.0388 0.44495,0.033 l 0.21447,-0.0119 z m 0.52373,0.9774 c 0.2705,-1.96616 0.37254,-3.42612 0.37478,-5.36244 10e-4,-1.57065 -0.0132,-1.83718 -0.11257,-2.12193 -0.0631,-0.1792 -0.169,-0.38398 -0.23534,-0.4552 -0.11651,-0.12489 -0.11898,-0.10879 -0.0709,0.48415 0.11885,1.46785 0.009,4.67594 -0.2345,6.81957 -0.10814,0.95286 -0.11639,1.185 -0.0519,1.45291 0.0422,0.17541 0.0988,0.31882 0.1254,0.31882 0.0269,0 0.11897,-0.51114 0.20491,-1.13588 z m -2.11725,0.47549 c 0.1021,-0.8683 0.18108,-2.27524 0.22673,-4.03378 l 0.042,-1.61591 -0.393,-0.22845 c -0.74456,-0.43277 -1.3189,-0.48034 -4.19089,-0.34716 -2.81099,0.13046 -4.39772,0.29126 -4.49912,0.45615 -0.0432,0.0706 -0.16292,5.35698 -0.1254,5.54403 10e-4,0.006 1.12263,0.0663 2.49163,0.13146 2.69947,0.12887 4.78705,0.33877 6.31054,0.63427 0.0405,0.008 0.10124,-0.23074 0.13759,-0.54068 z m -9.384,-0.61053 c 0.0948,-0.32121 0.10235,-0.6065 0.069,-2.63529 -0.0206,-1.2513 -0.0562,-2.31095 -0.0789,-2.35474 -0.0229,-0.0437 -0.0941,-0.0139 -0.15832,0.0672 -0.10123,0.12709 -0.12344,0.35643 -0.16726,1.71743 -0.0728,2.26116 -0.0711,3.01056 0.006,3.34912 0.0857,0.37069 0.19,0.32507 0.32842,-0.14359 z"
       id="path1055"
       inkscape:connector-curvature="0" />
    <rect
       style="opacity:1;fill:#0088aa;fill-opacity:0.87939698;fill-rule:nonzero;stroke:none;stroke-width:1.07331073;stroke-linecap:butt;stroke-linejoin:miter;stroke-miterlimit:4;stroke-dasharray:none;stroke-dashoffset:0;stroke-opacity:1;paint-order:stroke fill markers"
       id="rect1135"
       width="3.9210529"
       height="62.30822"
       x="20.509203"
       y="313.8475"
       transform="matrix(0.72790811,-0.68567469,0.80245901,0.59670725,0,0)" />
    <rect
       style="opacity:1;fill:#0088aa;fill-opacity:0.87939698;fill-rule:nonzero;stroke:none;stroke-width:1.09627473;stroke-linecap:butt;stroke-linejoin:miter;stroke-miterlimit:4;stroke-dasharray:none;stroke-dashoffset:0;stroke-opacity:1;paint-order:stroke fill markers"
       id="rect1135-9"
       width="3.4614463"
       height="58.1805"
       x="354.11639"
       y="-422.66473"
       transform="matrix(0.0858221,0.99631048,-0.91189958,0.4104134,0,0)" />
    <rect
       style="opacity:1;fill:#0088aa;fill-opacity:0.87939698;fill-rule:nonzero;stroke:none;stroke-width:1.12515616;stroke-linecap:butt;stroke-linejoin:miter;stroke-miterlimit:4;stroke-dasharray:none;stroke-dashoffset:0;stroke-opacity:1;paint-order:stroke fill markers"
       id="rect1135-98"
       width="4.3623791"
       height="61.545944"
       x="-273.58917"
       y="144.17336"
       transform="matrix(-0.10364228,-0.99461464,0.84506636,-0.53466144,0,0)" />
    <rect
       style="opacity:1;fill:#0088aa;fill-opacity:0.87939698;fill-rule:nonzero;stroke:none;stroke-width:1.07331073;stroke-linecap:butt;stroke-linejoin:miter;stroke-miterlimit:4;stroke-dasharray:none;stroke-dashoffset:0;stroke-opacity:1;paint-order:stroke fill markers"
       id="rect1135-92"
       width="3.9210534"
       height="62.30822"
       x="-112.31313"
       y="173.86098"
       transform="matrix(0.72790811,-0.68567469,0.80245901,0.59670725,0,0)" />
  </g>
</svg>
