<?xml version="1.0" encoding="UTF-8" standalone="no"?>
<!-- Created with Inkscape (http://www.inkscape.org/) -->

<svg
   xmlns:dc="http://purl.org/dc/elements/1.1/"
   xmlns:cc="http://creativecommons.org/ns#"
   xmlns:rdf="http://www.w3.org/1999/02/22-rdf-syntax-ns#"
   xmlns:svg="http://www.w3.org/2000/svg"
   xmlns="http://www.w3.org/2000/svg"
   xmlns:sodipodi="http://sodipodi.sourceforge.net/DTD/sodipodi-0.dtd"
   xmlns:inkscape="http://www.inkscape.org/namespaces/inkscape"
   width="377mm"
   height="196mm"
   viewBox="0 0 377 196"
   version="1.1"
   id="svg8"
   inkscape:version="0.92.2 (5c3e80d, 2017-08-06)"
   sodipodi:docname="general2.svg">
  <defs
     id="defs2">
    <inkscape:path-effect
       effect="spiro"
       id="path-effect1116"
       is_visible="true" />
    <inkscape:path-effect
       effect="spiro"
       id="path-effect1112"
       is_visible="true" />
    <inkscape:path-effect
       effect="spiro"
       id="path-effect1108"
       is_visible="true" />
    <inkscape:path-effect
       effect="spiro"
       id="path-effect1104"
       is_visible="true" />
  </defs>
  <sodipodi:namedview
     id="base"
     pagecolor="#ffffff"
     bordercolor="#666666"
     borderopacity="1.0"
     inkscape:pageopacity="0.0"
     inkscape:pageshadow="2"
     inkscape:zoom="1.0074671"
     inkscape:cx="222.91074"
     inkscape:cy="338.2052"
     inkscape:document-units="mm"
     inkscape:current-layer="layer1"
     showgrid="false"
     inkscape:window-width="1366"
     inkscape:window-height="705"
     inkscape:window-x="-8"
     inkscape:window-y="-8"
     inkscape:window-maximized="1" />
  <metadata
     id="metadata5">
    <rdf:RDF>
      <cc:Work
         rdf:about="">
        <dc:format>image/svg+xml</dc:format>
        <dc:type
           rdf:resource="http://purl.org/dc/dcmitype/StillImage" />
        <dc:title></dc:title>
      </cc:Work>
    </rdf:RDF>
  </metadata>
  <g
     inkscape:label="Capa 1"
     inkscape:groupmode="layer"
     id="layer1"
     transform="translate(0,-101)">
    <path
       sodipodi:type="star"
       style="opacity:1;fill:#006680;fill-opacity:0.75879397;fill-rule:nonzero;stroke:none;stroke-width:0.90579122;stroke-linecap:butt;stroke-linejoin:miter;stroke-miterlimit:4;stroke-dasharray:none;stroke-dashoffset:0;stroke-opacity:1;paint-order:stroke fill markers"
       id="path921-4-9-5-2-4-0-2"
       sodipodi:sides="6"
       sodipodi:cx="90.192093"
       sodipodi:cy="161.51494"
       sodipodi:r1="55.900375"
       sodipodi:r2="39.527546"
       sodipodi:arg1="0.83136255"
       sodipodi:arg2="1.3549613"
       inkscape:flatsided="true"
       inkscape:rounded="0.09"
       inkscape:randomized="0"
       d="m 127.86166,202.81694 c -3.71718,3.39027 -49.808727,13.49585 -54.60337,11.9718 -4.794642,-1.52404 -36.592105,-36.3877 -37.669567,-41.302 -1.077462,-4.91431 13.216622,-49.88355 16.933803,-53.27381 3.71718,-3.39026 49.808724,-13.49584 54.603374,-11.9718 4.79464,1.52405 36.5921,36.38771 37.66956,41.30201 1.07746,4.9143 -13.21662,49.88354 -16.9338,53.2738 z"
       inkscape:transform-center-x="0.038102427"
       inkscape:transform-center-y="0.0028607559"
       transform="matrix(0.71290528,0,0,0.75605825,273.62655,84.036787)" />
    <path
       sodipodi:type="star"
       style="opacity:1;fill:#006680;fill-opacity:0.75879397;fill-rule:nonzero;stroke:none;stroke-width:0.95535582;stroke-linecap:butt;stroke-linejoin:miter;stroke-miterlimit:4;stroke-dasharray:none;stroke-dashoffset:0;stroke-opacity:1;paint-order:stroke fill markers"
       id="path921-4-9-5-2-4-0"
       sodipodi:sides="6"
       sodipodi:cx="90.192093"
       sodipodi:cy="161.51494"
       sodipodi:r1="55.900375"
       sodipodi:r2="39.527546"
       sodipodi:arg1="0.83136255"
       sodipodi:arg2="1.3549613"
       inkscape:flatsided="true"
       inkscape:rounded="0.09"
       inkscape:randomized="0"
       d="m 127.86166,202.81694 c -3.71718,3.39027 -49.808727,13.49585 -54.60337,11.9718 -4.794642,-1.52404 -36.592105,-36.3877 -37.669567,-41.302 -1.077462,-4.91431 13.216622,-49.88355 16.933803,-53.27381 3.71718,-3.39026 49.808724,-13.49584 54.603374,-11.9718 4.79464,1.52405 36.5921,36.38771 37.66956,41.30201 1.07746,4.9143 -13.21662,49.88354 -16.9338,53.2738 z"
       inkscape:transform-center-x="0.034250921"
       inkscape:transform-center-y="0.0028607559"
       transform="matrix(0.64085197,0,0,0.75605825,197.36791,20.865012)" />
    <path
       sodipodi:type="star"
       style="opacity:1;fill:#006680;fill-opacity:0.75879397;fill-rule:nonzero;stroke:none;stroke-width:0.95535582;stroke-linecap:butt;stroke-linejoin:miter;stroke-miterlimit:4;stroke-dasharray:none;stroke-dashoffset:0;stroke-opacity:1;paint-order:stroke fill markers"
       id="path921-4-9-5-2-4"
       sodipodi:sides="6"
       sodipodi:cx="90.192093"
       sodipodi:cy="161.51494"
       sodipodi:r1="55.900375"
       sodipodi:r2="39.527546"
       sodipodi:arg1="0.83136255"
       sodipodi:arg2="1.3549613"
       inkscape:flatsided="true"
       inkscape:rounded="0.09"
       inkscape:randomized="0"
       d="m 127.86166,202.81694 c -3.71718,3.39027 -49.808727,13.49585 -54.60337,11.9718 -4.794642,-1.52404 -36.592105,-36.3877 -37.669567,-41.302 -1.077462,-4.91431 13.216622,-49.88355 16.933803,-53.27381 3.71718,-3.39026 49.808724,-13.49584 54.603374,-11.9718 4.79464,1.52405 36.5921,36.38771 37.66956,41.30201 1.07746,4.9143 -13.21662,49.88354 -16.9338,53.2738 z"
       inkscape:transform-center-x="0.034250921"
       inkscape:transform-center-y="0.0028607559"
       transform="matrix(0.64085197,0,0,0.75605825,110.02411,92.737491)" />
    <path
       sodipodi:type="star"
       style="opacity:1;fill:#006680;fill-opacity:0.75879397;fill-rule:nonzero;stroke:none;stroke-width:0.99459976;stroke-linecap:butt;stroke-linejoin:miter;stroke-miterlimit:4;stroke-dasharray:none;stroke-dashoffset:0;stroke-opacity:1;paint-order:stroke fill markers"
       id="path921-4-9-5-2"
       sodipodi:sides="6"
       sodipodi:cx="90.192093"
       sodipodi:cy="161.51494"
       sodipodi:r1="55.900375"
       sodipodi:r2="39.527546"
       sodipodi:arg1="0.83136255"
       sodipodi:arg2="1.3549613"
       inkscape:flatsided="true"
       inkscape:rounded="0.09"
       inkscape:randomized="0"
       d="m 127.86166,202.81694 c -3.71718,3.39027 -49.808727,13.49585 -54.60337,11.9718 -4.794642,-1.52404 -36.592105,-36.3877 -37.669567,-41.302 -1.077462,-4.91431 13.216622,-49.88355 16.933803,-53.27381 3.71718,-3.39026 49.808724,-13.49584 54.603374,-11.9718 4.79464,1.52405 36.5921,36.38771 37.66956,41.30201 1.07746,4.9143 -13.21662,49.88354 -16.9338,53.2738 z"
       inkscape:transform-center-x="0.031599257"
       inkscape:transform-center-y="0.0028607559"
       transform="matrix(0.59127744,0,0,0.75605826,13.572323,44.457532)" />
    <path
       style="fill:#ffffff;stroke-width:0.99999994"
       d="m 75.671723,185.93504 c -8.50344,-1.37556 -7.871,-1.31303 -13.36733,-1.3215 -2.71632,-0.004 -5.48015,-0.0638 -6.54538,-0.1414 -5.40934,-0.3939 -5.54122,-0.4173 -6.39255,-1.13327 -0.30471,-0.25624 -0.66046,-0.50391 -0.79059,-0.55042 -0.23584,-0.0844 -0.23799,-0.0899 -0.65536,-1.67552 -0.49902,-1.89599 -0.61209,-2.58718 -0.61209,-3.7412 0,-1.14281 0.19226,-2.12513 0.94748,-4.84048 1.41463,-5.08629 3.84631,-14.22123 3.84631,-14.44919 0,-0.0348 0.15305,-0.50421 0.34001,-1.04299 0.45581,-1.31321 0.50923,-1.81198 0.37516,-3.50456 -0.18293,-2.30986 -0.0935,-3.96632 0.23333,-4.32315 0.20659,-0.22555 1.54288,-0.36405 4.64427,-0.48135 1.60561,-0.0607 3.03834,-0.13504 3.18382,-0.16488 l 0.26454,-0.0545 -0.0187,-3.45314 c -0.0165,-3.02037 -0.006,-3.50092 0.0822,-3.83443 0.29538,-1.11751 0.80395,-1.38566 3.37167,-1.77781 2.45377,-0.37477 3.73065,-0.46087 5.77713,-0.38951 3.89633,0.13583 4.41896,0.31435 4.83287,1.65046 0.0959,0.30964 0.11417,0.60192 0.1122,1.79627 -0.001,1.27686 -0.027,1.60378 -0.23608,3.11708 -0.14467,1.04592 -0.24625,2.07707 -0.26658,2.70404 l -0.0329,1.01344 0.85281,0.0646 c 0.8995,0.0681 1.67431,0.23064 3.18825,0.66874 0.50704,0.14678 1.35841,0.33321 1.89193,0.41437 0.53352,0.0811 1.08161,0.20503 1.21799,0.27527 0.44782,0.23069 0.52345,0.55423 0.70152,3.00212 0.11453,1.57407 0.44799,3.88549 0.9214,6.38624 0.18152,0.9589 0.49626,2.69441 0.69942,3.85673 0.55971,3.2021 0.80855,4.36791 1.55185,7.2705 1.14149,4.45752 1.3709,5.89098 1.37299,8.57906 7.1e-4,0.92982 -0.0202,1.93799 -0.0464,2.24035 l -0.0477,0.54977 0.31977,0.16328 c 0.5098,0.26029 1.79251,0.66235 2.72555,0.85433 0.86155,0.1772 1.38314,0.4251 1.63627,0.7775 0.18763,0.26121 0.11393,0.39315 -0.36324,0.64996 -0.34233,0.18437 -0.652,0.23557 -1.82581,0.30262 -1.10706,0.0633 -1.46554,0.11913 -1.65335,0.25774 -0.41254,0.3046 -1.59019,0.40282 -4.40035,0.367 -1.47041,-0.0179 -3.55848,-8e-5 -4.64016,0.0414 -1.68668,0.0646 -2.14167,0.0471 -3.19586,-0.12331 z m 2.39689,-1.15562 c 0.27041,-0.11455 0.94892,-0.44575 1.50777,-0.73583 1.10697,-0.57464 1.87055,-0.80449 2.32095,-0.69873 0.39712,0.0933 1.57333,0.63042 2.32924,1.06367 0.72852,0.41759 1.13848,0.45944 1.48903,0.15195 0.47731,-0.41864 0.79452,-1.187 1.02867,-2.49167 0.0905,-0.50444 0.1117,-0.95483 0.10702,-2.26728 -0.005,-1.48206 -0.0241,-1.75574 -0.1985,-2.87838 -0.24816,-1.59882 -0.48984,-2.70335 -1.30624,-5.96952 -0.80288,-3.21209 -1.01745,-4.27774 -1.33957,-6.6528 -0.16261,-1.19888 -0.37549,-2.38553 -0.62563,-3.48692 -0.5198,-2.28907 -0.84622,-4.01214 -0.89488,-4.72376 -0.0224,-0.32846 -0.0608,-0.61839 -0.0851,-0.64432 -0.0681,-0.0722 -0.38764,2.59286 -0.76659,6.39289 -0.38048,3.81513 -0.46125,4.56633 -0.68388,6.36014 -0.15289,1.23189 -0.15306,1.2366 -0.0357,1.63779 0.28384,0.97048 0.21887,1.79457 -0.19794,2.5112 -0.60496,1.04008 -1.8099,1.28522 -2.46364,0.50115 -0.35533,-0.42618 -0.52067,-0.98752 -0.52191,-1.77194 -0.001,-1.05228 0.14237,-1.68123 0.55399,-2.41809 0.19752,-0.35369 0.38524,-0.76098 0.41711,-0.90515 0.0341,-0.15413 0.0514,-2.19948 0.0416,-4.96413 -0.0148,-4.45799 -0.0606,-6.44598 -0.14598,-6.44508 -0.0211,2e-4 -0.11848,0.48759 -0.21646,1.08304 -0.1686,1.0236 -0.5916,3.18801 -2.49345,12.7585 -1.16224,5.84863 -1.35637,7.03874 -1.47853,9.06411 -0.10432,1.72991 0.0985,3.60839 0.51851,4.80172 0.20379,0.57905 0.36566,0.73059 0.98904,0.92613 0.45799,0.14379 1.59004,0.0392 2.15107,-0.19869 z m -3.60092,-0.51359 c -0.30172,-1.01263 -0.38017,-1.92761 -0.34196,-3.98882 0.0515,-2.77537 0.0487,-2.7576 2.09982,-13.31359 2.0261,-10.42714 2.30401,-12.03858 2.30401,-13.35995 v -0.60885 l -0.53778,-0.0684 c -0.29578,-0.0376 -1.14621,-0.27827 -1.88985,-0.53471 -0.74366,-0.25644 -1.61483,-0.51761 -1.93596,-0.58037 -1.14219,-0.22327 -4.35315,-0.53583 -8.81937,-0.8585 -1.6225,-0.11713 -3.32338,-0.25796 -3.77972,-0.31277 -1.33781,-0.16069 -3.00111,-0.13484 -3.3551,0.0523 -0.47946,0.25335 -1.32552,0.45398 -2.45277,0.58162 -0.57464,0.0651 -1.13998,0.15214 -1.25628,0.19352 l -0.21148,0.0754 -2.41511,8.97836 c -1.32832,4.93811 -2.71889,10.04821 -3.09017,11.35578 -0.77189,2.71851 -1.03552,3.96809 -1.0864,5.14988 -0.0463,1.07405 0.0629,1.85341 0.5138,3.66977 0.35016,1.41053 0.35687,1.42785 0.63101,1.62854 0.98825,0.72355 2.05315,1.01455 4.487,1.22612 0.38873,0.0338 1.08014,0.10879 1.53648,0.16647 1.84816,0.23382 4.02953,0.29684 6.20478,0.17919 2.51474,-0.13585 4.48373,-0.0346 7.80786,0.40166 3.25076,0.42663 4.34428,0.54753 5.08128,0.56173 l 0.68696,0.0139 z m -24.84311,-5.13787 c -0.0177,-0.08 0.0344,-0.39368 0.11638,-0.69732 0.0818,-0.30361 0.14879,-0.57729 0.14879,-0.60819 0,-0.031 -0.0963,-0.0292 -0.21399,0.004 -0.11762,0.0328 -0.2256,0.0272 -0.23979,-0.014 -0.0543,-0.15215 0.1717,-1.04971 0.4149,-1.64748 0.30363,-0.74631 1.32951,-2.2294 1.32951,-1.92209 0,0.0233 -0.0835,0.13306 -0.18516,0.24401 -0.33744,0.36736 -1.41278,2.56842 -1.41278,2.89183 0,0.1412 0.26014,0.18713 0.40702,0.072 0.082,-0.064 0.26911,-0.42941 0.41616,-0.81179 0.27882,-0.72515 0.50501,-1.14137 0.56457,-1.03897 0.0608,0.10477 -0.14945,0.68791 -0.56373,1.56306 -0.39499,0.83431 -0.63564,1.55973 -0.63829,1.92421 -10e-4,0.21971 -0.0974,0.24618 -0.14351,0.0396 z m 1.39925,-0.30487 c -0.0527,-0.23636 -0.01,-0.66398 0.0642,-0.63621 0.0337,0.014 0.0704,0.14916 0.0817,0.30344 0.024,0.33415 -0.0884,0.59054 -0.14599,0.33277 z m 20.80669,-1.66938 c 0,-0.18854 0.0256,-0.29601 0.0613,-0.2579 0.0337,0.0358 0.0613,0.18138 0.0613,0.32321 0,0.14181 -0.0276,0.25794 -0.0613,0.25794 -0.0337,0 -0.0613,-0.14559 -0.0613,-0.32325 z m -0.66975,-0.98394 c -0.005,-0.26344 0.56669,-2.17973 0.65081,-2.17973 0.0658,0 -0.0745,0.5274 -0.30266,1.13797 -0.13611,0.36439 -0.26878,0.81609 -0.29471,1.00382 l -0.0471,0.34131 z m -15.54003,-2.98935 c -0.12119,-0.0841 -0.093,-1.73784 0.0479,-2.83576 0.0674,-0.52306 0.25789,-1.64042 0.42372,-2.48312 0.16585,-0.84266 0.57005,-3.02988 0.89826,-4.86052 0.32815,-1.83062 0.62637,-3.48771 0.66268,-3.6824 0.0783,-0.42065 0.1412,-0.46816 0.92109,-0.69653 1.50279,-0.44013 3.44993,-0.39599 6.80421,0.15413 1.92151,0.31518 2.37683,0.44827 2.67222,0.78102 0.33412,0.37641 0.25901,1.47144 -0.30874,4.50031 -0.41511,2.21453 -0.55733,3.29606 -0.79209,6.02284 -0.0826,0.95888 -0.18263,2.0644 -0.22241,2.45667 l -0.0723,0.71325 -5.47889,-0.008 c -3.01342,-0.004 -5.51348,-0.0323 -5.55573,-0.0617 z m 10.84274,-1.9972 c 0.24791,-2.77884 0.64913,-5.80003 1.22136,-9.19681 0.15371,-0.91262 0.25749,-1.69384 0.23055,-1.73603 -0.10074,-0.15771 -2.22982,-0.77023 -3.7365,-1.07499 -1.05575,-0.21357 -4.54673,-0.18337 -5.42758,0.047 -0.38239,0.0999 -0.71831,0.2063 -0.7465,0.23626 -0.0748,0.0793 -1.36454,6.81372 -1.65314,8.63113 -0.21055,1.32594 -0.42813,2.90113 -0.59478,4.30618 l -0.0428,0.36063 4.44751,-0.0597 c 2.44613,-0.033 4.80702,-0.0252 5.24645,0.016 0.43945,0.0419 0.825,0.07 0.8568,0.062 0.0318,-0.008 0.12107,-0.72451 0.19862,-1.59254 z m -6.35421,-0.27422 c -0.16161,-0.3349 -0.15667,-0.98107 0.017,-2.18959 0.11011,-0.76632 0.14894,-1.21894 0.11011,-1.28555 -0.0387,-0.0666 -0.17504,-0.0653 -0.38713,0.004 -0.4191,0.13663 -0.86371,0.13703 -0.86371,0.001 0,-0.0582 -0.0382,-0.10578 -0.085,-0.10578 -0.17417,0 -0.20752,-1.09334 -0.0789,-2.58767 0.0892,-1.03649 0.1085,-1.05805 1.07388,-1.20067 0.38113,-0.0564 0.72713,-0.15114 0.76891,-0.21076 0.0914,-0.13047 0.17366,-0.52346 0.35085,-1.67549 l 0.1333,-0.8669 0.28596,-0.18974 c 0.35301,-0.23421 1.56967,-0.26431 1.92997,-0.0478 0.19962,0.11993 0.23047,0.18257 0.23047,0.46703 0,0.18058 -0.0574,0.68016 -0.12754,1.10997 -0.0701,0.42984 -0.11306,0.84626 -0.0955,0.92537 0.0373,0.16727 0.32498,0.31451 0.92977,0.47626 0.64724,0.17303 0.64238,0.1603 0.58297,1.54077 -0.0277,0.64155 -0.0833,1.45469 -0.12359,1.807 l -0.0733,0.64056 -0.2528,0.0696 c -0.13907,0.0382 -0.57419,0.0372 -0.96698,-0.004 -0.83918,-0.0844 -0.76638,-0.19995 -0.86341,1.36991 -0.0363,0.58815 -0.11737,1.27145 -0.17978,1.51841 -0.11355,0.44874 -0.11392,0.4491 -0.44553,0.4491 -0.1825,0 -0.66143,0.0305 -1.06428,0.0678 -0.59775,0.0552 -0.74595,0.0397 -0.80593,-0.0846 z m 2.05348,-0.65565 c 0.0212,-0.0361 0.13018,-1.36588 0.17211,-2.09969 0.0656,-1.15003 0.0966,-1.18355 1.13499,-1.22475 1.02598,-0.0407 0.96191,0.0589 1.02486,-1.59294 0.0456,-1.194 0.0943,-1.0966 -0.64171,-1.28162 -0.53102,-0.13346 -0.87281,-0.41113 -0.87213,-0.70837 4.5e-4,-0.16448 0.20161,-1.71837 0.27728,-2.14123 0.0245,-0.13762 -0.0943,-0.15155 -0.90356,-0.10578 l -0.93192,0.0527 -0.0826,0.634 c -0.10087,0.77354 -0.32307,1.96485 -0.39643,2.12518 -0.0297,0.0646 -0.26792,0.14895 -0.5296,0.18715 -0.26165,0.0384 -0.63191,0.0981 -0.82277,0.13264 l -0.34698,0.0628 -0.0677,0.78439 c -0.0373,0.4314 -0.0679,0.97379 -0.0679,1.20534 0,0.55363 0.18195,0.69732 0.67093,0.52978 0.44292,-0.15174 0.71312,-0.14399 0.7937,0.0229 0.0788,0.16328 0.0132,1.07558 -0.1716,2.4045 -0.0685,0.49092 -0.12458,0.95866 -0.12491,1.03943 -4.8e-4,0.12231 0.15618,0.13405 0.9368,0.0702 0.5155,-0.0422 0.94267,-0.0857 0.94927,-0.0971 z m 25.06323,13.66908 c -0.17077,-0.12609 -0.338,-0.12609 -0.338,0 0,0.0582 0.1037,0.10243 0.23046,0.0981 0.18489,-0.006 0.20617,-0.0254 0.10764,-0.0981 z m -7.0985,-11.5073 c 0.0846,-0.10165 0.23359,-0.4378 0.33128,-0.74672 0.22178,-0.70115 0.24661,-1.47309 0.0647,-2.00869 -0.32318,-0.95137 -1.27261,-0.43245 -1.48986,0.81429 -0.1026,0.58885 -0.0905,0.95928 0.0484,1.48562 0.19326,0.732 0.65051,0.93122 1.04552,0.4555 z m -1.42707,-0.23021 c -0.11306,-0.263 -0.14006,-0.46171 -0.13957,-1.03023 7.1e-4,-0.852 0.15833,-1.47499 0.53558,-2.11715 l 0.25634,-0.43635 h -0.26411 c -0.2169,0 -0.3004,0.0625 -0.46709,0.34898 -0.21845,0.37554 -0.39958,1.22118 -0.39899,1.86271 6.9e-4,0.83517 0.26554,1.69787 0.52111,1.69787 0.0788,0 0.0706,-0.0609 -0.0434,-0.32583 z m 1.76162,-3.92423 c 0.0527,-0.12907 0.0956,-0.41455 0.0956,-0.63421 0,-0.21964 0.20787,-2.17046 0.46196,-4.33509 0.67115,-5.71764 0.8854,-8.03466 0.98601,-10.6633 l 0.0431,-1.12736 -0.41401,-0.21984 c -0.22771,-0.12093 -0.57444,-0.21986 -0.77054,-0.21986 -0.32618,0 -0.35379,0.0179 -0.32442,0.21117 0.0324,0.21395 0.37096,0.78366 0.5143,0.86583 0.0632,0.0361 0.0635,0.42932 10e-4,2.04622 -0.0999,2.62466 -0.55149,9.50376 -0.84397,12.85601 -0.0543,0.62345 -0.0828,1.2059 -0.0631,1.2944 0.052,0.23294 0.20229,0.19748 0.31284,-0.074 z m -0.56852,-0.76898 c 0.21167,-3.67643 0.50944,-13.11238 0.4545,-14.40262 -0.0607,-1.42458 -0.21229,-1.80992 -0.88136,-2.2403 -0.80182,-0.51577 -2.01628,-0.77155 -4.50172,-0.94808 -0.89574,-0.0636 -2.70726,-0.2331 -4.02557,-0.37661 -4.43477,-0.48277 -10.79238,-0.79045 -12.16886,-0.58891 -0.47322,0.0692 -1.64864,0.17104 -2.61201,0.22605 -1.6714,0.0955 -2.38558,0.23299 -2.69656,0.51915 -0.2599,0.23915 -0.32468,2.11234 -0.099,2.8626 0.11146,0.37037 0.1575,0.386 0.30615,0.10365 0.0872,-0.16586 0.10998,-0.37962 0.10617,-1.00385 -0.004,-0.53304 0.0224,-0.83975 0.0778,-0.93527 0.0916,-0.15772 0.45903,-0.21859 2.39762,-0.39853 1.75912,-0.16329 5.62353,-0.059 10.01783,0.26981 7.04589,0.52752 9.38032,0.79195 12.01521,1.3611 l 0.58385,0.12609 0.041,1.47871 c 0.0969,3.5024 0.1815,10.3627 0.14385,11.67521 -0.0562,1.95209 0.0515,2.69393 0.42984,2.96636 0.29571,0.21287 0.36592,0.0943 0.41134,-0.69459 z m -5.9828,-20.23459 c 0.17969,-1.78903 0.20811,-2.31791 0.21575,-4.01519 0.009,-1.66331 -0.009,-2.04609 -0.10814,-2.5672 -0.0642,-0.33683 -0.16111,-0.65213 -0.21509,-0.70067 -0.23506,-0.21122 -3.08047,-0.35688 -5.59883,-0.28661 -4.0313,0.11237 -5.41049,0.31389 -6.08443,0.88874 -0.65235,0.55639 -0.73177,1.13323 -0.62885,4.56766 0.0665,2.21699 0.12181,2.72733 0.34079,3.14349 0.32849,0.62424 0.42677,-0.004 0.46964,-3.00646 0.0192,-1.34984 0.0596,-2.3875 0.095,-2.44362 0.13001,-0.20656 0.81641,-0.56476 1.46937,-0.76699 0.57204,-0.17719 1.16598,-0.23036 3.69268,-0.33103 4.12852,-0.16448 4.73796,-0.0587 5.15188,0.89412 0.0823,0.18934 0.18601,0.53458 0.23049,0.76707 0.10777,0.56337 0.095,2.32099 -0.0287,3.90515 -0.0542,0.69497 -0.0985,1.41721 -0.0985,1.605 0,0.3163 0.017,0.34464 0.23046,0.38522 0.12672,0.0241 0.327,0.0388 0.44495,0.033 l 0.21447,-0.0119 z m 0.52373,0.9774 c 0.2705,-1.96616 0.37254,-3.42612 0.37478,-5.36244 10e-4,-1.57065 -0.0132,-1.83718 -0.11257,-2.12193 -0.0631,-0.1792 -0.169,-0.38398 -0.23534,-0.4552 -0.11651,-0.12489 -0.11898,-0.10879 -0.0709,0.48415 0.11885,1.46785 0.009,4.67594 -0.2345,6.81957 -0.10814,0.95286 -0.11639,1.185 -0.0519,1.45291 0.0422,0.17541 0.0988,0.31882 0.1254,0.31882 0.0269,0 0.11897,-0.51114 0.20491,-1.13588 z m -2.11725,0.47549 c 0.1021,-0.8683 0.18108,-2.27524 0.22673,-4.03378 l 0.042,-1.61591 -0.393,-0.22845 c -0.74456,-0.43277 -1.3189,-0.48034 -4.19089,-0.34716 -2.81099,0.13046 -4.39772,0.29126 -4.49912,0.45615 -0.0432,0.0706 -0.16292,5.35698 -0.1254,5.54403 10e-4,0.006 1.12263,0.0663 2.49163,0.13146 2.69947,0.12887 4.78705,0.33877 6.31054,0.63427 0.0405,0.008 0.10124,-0.23074 0.13759,-0.54068 z m -9.384,-0.61053 c 0.0948,-0.32121 0.10235,-0.6065 0.069,-2.63529 -0.0206,-1.2513 -0.0562,-2.31095 -0.0789,-2.35474 -0.0229,-0.0437 -0.0941,-0.0139 -0.15832,0.0672 -0.10123,0.12709 -0.12344,0.35643 -0.16726,1.71743 -0.0728,2.26116 -0.0711,3.01056 0.006,3.34912 0.0857,0.37069 0.19,0.32507 0.32842,-0.14359 z"
       id="path1055"
       inkscape:connector-curvature="0" />
    <path
       style="opacity:1;fill:#0088aa;fill-opacity:0.87939698;fill-rule:nonzero;stroke:none;stroke-width:1.06500018;stroke-linecap:butt;stroke-linejoin:miter;stroke-miterlimit:4;stroke-dasharray:none;stroke-dashoffset:0;stroke-opacity:1;paint-order:stroke fill markers"
       d="m 52.267811,187.71461 0.401803,3.27792 -54.1153437,25.15217 -0.4018025,-3.27792 z"
       id="rect1135-9"
       inkscape:connector-curvature="0" />
    <path
       style="fill:#ffffff;stroke-width:0.99999994"
       d="m 180.17354,229.49659 c -1.19346,-0.23448 -2.15679,-0.76922 -7.24637,-4.0224 -2.85204,-1.82297 -5.22422,-3.33701 -5.27153,-3.36453 -0.0473,-0.0275 -2.41474,1.44008 -5.26098,3.26134 -3.25565,2.08326 -5.47046,3.41132 -5.97172,3.58082 -0.67549,0.22841 -1.05278,0.26942 -2.47883,0.26942 -1.43135,0 -1.80081,-0.0405 -2.47882,-0.27149 -1.18603,-0.40411 -6.21766,-3.68663 -6.74154,-4.39802 -0.55937,-0.75959 -0.66251,-1.87818 -0.24857,-2.69575 0.28218,-0.55732 0.75238,-0.89521 5.69047,-4.08921 l 5.38286,-3.48169 -5.38157,-3.46816 c -6.22377,-4.01092 -6.38812,-4.15581 -6.38521,-5.62919 0.003,-1.38704 0.31062,-1.71155 3.68475,-3.88371 3.38746,-2.18075 3.89269,-2.37937 6.03499,-2.37256 2.31652,0.007 2.42163,0.0565 8.67504,4.05238 l 5.48798,3.50681 5.40115,-3.45592 c 4.95438,-3.17005 5.47926,-3.47229 6.34551,-3.65381 1.27468,-0.2671 3.01107,-0.2001 4.19035,0.1617 1.13022,0.34675 6.22589,3.58399 6.82395,4.33519 0.29421,0.36955 0.43018,0.77154 0.48729,1.44067 0.13474,1.57859 0.0164,1.68822 -6.03695,5.59257 l -5.16959,3.33433 5.33505,3.44458 c 6.21956,4.01568 6.3501,4.13224 6.34552,5.66576 -0.003,0.84637 -0.0658,1.04183 -0.50304,1.55344 -0.64897,0.75939 -5.74369,4.01772 -6.83958,4.37426 -0.90784,0.29536 -2.89522,0.40482 -3.87061,0.21317 z m 3.60501,-0.49167 c 1.19292,-0.36607 6.29041,-3.65913 6.80517,-4.39624 0.48897,-0.7002 0.48894,-1.91972 -7e-5,-2.61983 -0.49888,-0.71425 -33.6246,-22.05518 -34.8479,-22.45043 -1.10007,-0.35544 -2.70327,-0.41861 -3.94444,-0.15543 -0.82265,0.17443 -1.3107,0.43178 -3.75028,1.97748 -1.5425,0.97732 -3.00766,1.99863 -3.25591,2.26957 -0.61889,0.67546 -0.74893,1.81868 -0.30248,2.65931 0.30231,0.56922 1.36365,1.27869 17.06472,11.40729 9.20831,5.94018 16.97224,10.90778 17.25319,11.0391 1.30393,0.60951 3.48471,0.72743 4.978,0.26918 z m -16.69267,-9.3576 c -0.68803,-0.31003 -0.34851,-1.07565 0.47698,-1.07565 0.41396,0 0.9001,0.35509 0.9001,0.65747 0,0.2058 -0.57934,0.59549 -0.8853,0.59549 -0.0541,0 -0.27535,-0.0798 -0.49178,-0.17731 z m 0.79665,-0.29219 c 0.27201,-0.17499 0.0828,-0.44174 -0.31336,-0.44174 -0.39036,0 -0.59051,0.17761 -0.45541,0.40412 0.11759,0.19712 0.49233,0.21546 0.76877,0.0376 z m -2.85901,-1.00188 c -0.41094,-0.29212 -0.29212,-0.71153 0.25071,-0.885 0.8709,-0.27832 1.62418,0.41448 0.96227,0.885 -0.16899,0.12013 -0.44191,0.21842 -0.60649,0.21842 -0.16458,0 -0.4375,-0.0983 -0.60649,-0.21842 z m 1.01381,-0.27601 c 0.13618,-0.22831 -0.15495,-0.45978 -0.47798,-0.38004 -0.40854,0.10086 -0.36662,0.53275 0.0517,0.53275 0.18434,0 0.37616,-0.0687 0.42626,-0.15271 z m 1.68517,-0.47377 c -0.30157,-0.4258 0.0502,-0.8543 0.70125,-0.8543 0.62255,0 0.9245,0.18602 0.9245,0.56953 0,0.38352 -0.30195,0.56953 -0.9245,0.56953 -0.36105,0 -0.55548,-0.079 -0.70125,-0.28476 z m 1.10194,-0.11962 c 0.18818,-0.14587 0.17655,-0.20954 -0.0668,-0.36613 -0.27482,-0.1768 -0.31447,-0.1768 -0.58929,0 -0.24339,0.15659 -0.25502,0.22026 -0.0668,0.36613 0.12529,0.0971 0.28795,0.17657 0.36149,0.17657 0.0735,0 0.2362,-0.0795 0.36149,-0.17657 z m -5.76663,-0.39641 c -0.49107,-0.34907 -0.17774,-0.83897 0.56647,-0.88572 0.95047,-0.0597 1.36275,0.58919 0.61921,0.9746 -0.39813,0.20637 -0.81424,0.17518 -1.18568,-0.0889 z m 1.11835,-0.35241 c 0.0575,-0.1941 -0.41048,-0.37415 -0.68683,-0.26427 -0.0886,0.0352 -0.16109,0.1671 -0.16109,0.29306 0,0.17208 0.0986,0.21996 0.39658,0.19261 0.21812,-0.02 0.42122,-0.11965 0.45134,-0.2214 z m 6.58856,0.35586 c -0.40893,-0.26307 -0.44442,-0.45208 -0.13279,-0.70711 0.38284,-0.31332 0.962,-0.35412 1.36315,-0.0961 0.45697,0.29397 0.45944,0.51341 0.009,0.80316 -0.19477,0.1253 -0.47363,0.22781 -0.61971,0.22781 -0.14608,0 -0.42494,-0.10251 -0.61971,-0.22781 z m 1.02914,-0.37184 c 0.0705,-0.2354 -0.44066,-0.39402 -0.71043,-0.22047 -0.26977,0.17355 -0.0232,0.50237 0.34269,0.45704 0.1696,-0.021 0.33508,-0.12747 0.36774,-0.23657 z m -5.98057,-0.3041 c -0.27058,-0.32527 -0.22558,-0.51709 0.1762,-0.751 0.7468,-0.43479 1.87645,0.20022 1.29927,0.73035 -0.34113,0.31332 -1.22173,0.32565 -1.47547,0.0207 z m 1.03767,-0.11165 c 0.34083,-0.13883 0.1092,-0.46537 -0.3301,-0.46537 -0.23073,0 -0.35968,0.0749 -0.35968,0.20883 0,0.34383 0.24855,0.43628 0.68978,0.25654 z m -5.70851,-0.44586 c -0.38087,-0.27074 -0.37102,-0.50833 0.0308,-0.74225 0.46759,-0.27222 1.04009,-0.23213 1.37455,0.0963 0.26867,0.26379 0.26867,0.30573 0,0.56952 -0.34482,0.33856 -0.98742,0.37353 -1.40531,0.0765 z m 1.08853,-0.40421 c -0.0341,-0.15371 -0.18172,-0.24178 -0.40531,-0.24178 -0.40513,0 -0.59543,0.38239 -0.25723,0.51686 0.35434,0.14088 0.72103,-0.0114 0.66254,-0.27508 z m 6.71889,0.48948 c -0.35594,-0.13337 -0.41586,-0.67446 -0.0974,-0.87934 0.33668,-0.21659 1.1671,-0.16607 1.37483,0.0836 0.51146,0.61481 -0.3418,1.14629 -1.27744,0.79571 z m 0.92955,-0.43978 c 0,-0.30671 -0.33494,-0.40959 -0.65765,-0.20199 -0.32269,0.2076 -0.16278,0.42308 0.31399,0.42308 0.22214,0 0.34366,-0.0782 0.34366,-0.22109 z m -5.83388,-0.22871 c -0.45698,-0.29398 -0.45945,-0.51341 -0.009,-0.80316 0.19477,-0.1253 0.47364,-0.22781 0.61971,-0.22781 0.32704,0 0.97382,0.40163 0.97382,0.60471 0,0.48745 -1.05018,0.76998 -1.58447,0.42626 z m 1.02008,-0.37767 c 0.0705,-0.2354 -0.44066,-0.39401 -0.71044,-0.22046 -0.26976,0.17355 -0.0232,0.50237 0.3427,0.45704 0.1696,-0.021 0.33508,-0.12747 0.36774,-0.23658 z m 6.77183,0.40927 c -0.28277,-0.12742 -0.37006,-0.26765 -0.33018,-0.53041 0.10964,-0.72232 1.73628,-0.63049 1.73628,0.098 0,0.44569 -0.8182,0.69728 -1.4061,0.43238 z m 0.82568,-0.27911 c 0.272,-0.17499 0.0828,-0.44175 -0.31337,-0.44175 -0.43511,0 -0.60267,0.19942 -0.33919,0.40366 0.2571,0.19929 0.38992,0.20705 0.65256,0.0381 z m -13.46541,-0.44842 c -0.41178,-0.37821 -0.0207,-0.90458 0.67211,-0.90458 1.13242,0 1.27517,1.04646 0.15237,1.11699 -0.40844,0.0257 -0.62642,-0.0305 -0.82448,-0.21241 z m 1.08857,-0.31549 c 0.0428,-0.18694 -0.0343,-0.24737 -0.31541,-0.24737 -0.44898,0 -0.68792,0.32468 -0.34241,0.46527 0.35568,0.14473 0.59285,0.0662 0.65782,-0.2179 z m 6.61854,0.41329 c -0.29794,-0.19168 -0.26445,-0.61094 0.0658,-0.82338 0.33023,-0.21244 0.98194,-0.23398 1.27989,-0.0423 0.11685,0.0752 0.21247,0.26996 0.21247,0.43285 0,0.16288 -0.0956,0.35766 -0.21247,0.43284 -0.11686,0.0752 -0.41964,0.13669 -0.67283,0.13669 -0.25319,0 -0.55596,-0.0615 -0.67282,-0.13669 z m 1.03432,-0.2677 c 0.1885,-0.14612 0.17509,-0.20998 -0.0777,-0.3702 -0.2876,-0.18229 -0.32019,-0.18084 -0.55723,0.0248 -0.18657,0.1619 -0.20108,0.25776 -0.056,0.3702 0.25427,0.1971 0.41192,0.19143 0.69093,-0.0248 z m 6.62749,0.17312 c -0.4933,-0.35066 -0.1777,-0.839 0.57259,-0.88601 0.44071,-0.0276 0.62514,0.0275 0.8582,0.25629 0.27546,0.27046 0.27595,0.31197 0.007,0.57622 -0.35423,0.3478 -0.99031,0.37147 -1.43761,0.0535 z m 1.09195,-0.50871 c -0.0617,-0.10346 -0.25096,-0.17092 -0.42056,-0.14991 -0.3838,0.0476 -0.51895,0.43084 -0.19705,0.55888 0.31968,0.12714 0.76249,-0.16608 0.61761,-0.40897 z m -13.42265,0.0281 c -0.50121,-0.2598 -0.52352,-0.53706 -0.0669,-0.83086 0.52665,-0.33881 1.15921,-0.24326 1.41276,0.21339 0.29388,0.52929 -0.66625,0.96978 -1.34592,0.61747 z m 0.88203,-0.45727 c 0.0705,-0.2354 -0.44066,-0.39402 -0.71043,-0.22047 -0.26978,0.17355 -0.0232,0.50237 0.3427,0.45704 0.16959,-0.021 0.33507,-0.12747 0.36773,-0.23657 z m 6.80086,0.42234 c -0.49357,-0.22241 -0.50587,-0.63321 -0.0273,-0.91184 0.33436,-0.19465 0.40755,-0.19833 0.84104,-0.0423 0.57473,0.20685 0.70227,0.61611 0.28454,0.91305 -0.37244,0.26476 -0.58434,0.27269 -1.09827,0.0411 z m 0.89359,-0.30679 c 0.12506,-0.23064 -0.0617,-0.42714 -0.40601,-0.42714 -0.17623,0 -0.35516,0.0641 -0.39762,0.14238 -0.12506,0.23064 0.0617,0.42715 0.406,0.42715 0.17623,0 0.35516,-0.0641 0.39763,-0.14239 z m -5.88442,-0.41965 c -0.26495,-0.31849 -0.22687,-0.51634 0.14051,-0.73023 0.64693,-0.37664 1.4468,-0.16599 1.4468,0.38102 0,0.16289 -0.0956,0.35766 -0.21248,0.43284 -0.33667,0.21659 -1.16709,0.16607 -1.37483,-0.0836 z m 1.04969,-0.17336 c 0.26779,-0.20758 0.0938,-0.40366 -0.35813,-0.40366 -0.21521,0 -0.34367,0.0781 -0.34367,0.20883 0,0.37298 0.34751,0.46946 0.7018,0.19483 z m 6.65619,0.14052 c -0.35712,-0.328 -0.34751,-0.46702 0.0482,-0.69739 0.4248,-0.24731 0.96642,-0.23925 1.33083,0.0198 0.38087,0.27074 0.37102,0.50832 -0.0308,0.74224 -0.45088,0.2625 -1.02184,0.23513 -1.34822,-0.0647 z m 1.14085,-0.31637 c 0,-0.25031 -0.41722,-0.36947 -0.68666,-0.19613 -0.26345,0.16948 -0.2523,0.39291 0.0227,0.45462 0.35704,0.0801 0.66398,-0.0394 0.66398,-0.25849 z m -5.93633,-0.23126 c -0.67585,-0.48043 0.31124,-1.20717 1.13528,-0.83585 0.48704,0.21946 0.50619,0.78596 0.0321,0.9492 -0.5056,0.17407 -0.80377,0.14512 -1.16737,-0.11335 z m 1.06721,-0.39523 c 0,-0.33922 -0.69117,-0.30533 -0.76668,0.0376 -0.0487,0.22084 0.0108,0.25909 0.35412,0.22781 0.27503,-0.0251 0.41256,-0.11353 0.41256,-0.26541 z m -5.74537,-0.16503 c -0.45697,-0.29398 -0.45945,-0.51341 -0.009,-0.80316 0.19476,-0.1253 0.47363,-0.22781 0.6197,-0.22781 0.32703,0 0.97383,0.40163 0.97383,0.60471 0,0.48745 -1.0502,0.76998 -1.58448,0.42626 z m 1.02009,-0.37767 c 0.0705,-0.2354 -0.44067,-0.39401 -0.71044,-0.22046 -0.26977,0.17355 -0.0232,0.50237 0.3427,0.45704 0.16959,-0.021 0.33507,-0.12747 0.36774,-0.23658 z m 6.77195,0.40932 c -0.57169,-0.2576 -0.44431,-0.84983 0.21464,-0.99799 0.40701,-0.0915 0.55657,-0.068 0.87656,0.13786 0.31612,0.20337 0.35541,0.30299 0.2175,0.55145 -0.22059,0.3974 -0.80558,0.53539 -1.3087,0.30868 z m 0.84285,-0.47354 c 0.0421,-0.18393 -0.0347,-0.24737 -0.29941,-0.24737 -0.466,0 -0.6404,0.1944 -0.36555,0.40746 0.28752,0.22287 0.59426,0.14902 0.66496,-0.16009 z m -5.87209,-0.22786 c -0.38086,-0.27074 -0.37101,-0.50833 0.0308,-0.74224 0.46758,-0.27223 1.04008,-0.23214 1.37455,0.0962 0.26867,0.26379 0.26867,0.30574 0,0.56953 -0.34483,0.33856 -0.98743,0.37352 -1.40532,0.0765 z m 1.05966,-0.53167 c -0.0617,-0.10346 -0.25096,-0.17092 -0.42056,-0.14991 -0.38381,0.0476 -0.51895,0.43084 -0.19705,0.55888 0.31967,0.12714 0.76249,-0.16608 0.61761,-0.40897 z m 2.05083,-0.007 c -0.47728,-0.21506 -0.50996,-0.63083 -0.0697,-0.88713 0.42085,-0.24502 0.79016,-0.23868 1.15376,0.0198 0.40805,0.29006 0.3655,0.65737 -0.10049,0.86734 -0.21642,0.0975 -0.43773,0.17732 -0.49177,0.17732 -0.0541,0 -0.27535,-0.0798 -0.49178,-0.17732 z m 0.89452,-0.38561 c 0.10676,-0.26263 0.003,-0.34832 -0.42181,-0.34832 -0.38975,0 -0.54699,0.15071 -0.40521,0.3884 0.15137,0.25375 0.71875,0.22626 0.82702,-0.0401 z m -2.95689,-0.90845 c -0.66904,-0.47561 0.2263,-1.22346 1.04749,-0.87494 0.4551,0.19315 0.54719,0.66918 0.17568,0.90818 -0.38325,0.24655 -0.8473,0.23394 -1.22317,-0.0332 z m 1.04915,-0.40807 c 0,-0.33923 -0.69117,-0.30534 -0.76668,0.0376 -0.0486,0.22084 0.0108,0.25909 0.35412,0.22781 0.27504,-0.0251 0.41256,-0.11353 0.41256,-0.2654 z m -11.88654,19.37457 c 0.68629,-0.2174 2.15449,-1.09081 5.99515,-3.56641 l 5.08627,-3.27851 -5.70044,-3.6803 -5.70045,-3.6803 -5.17657,3.34104 c -5.77536,3.7275 -5.95276,3.88293 -5.95276,5.21557 0,1.20851 0.39404,1.62422 3.37869,3.56451 2.56709,1.66884 3.59638,2.18783 4.69983,2.36977 0.91003,0.15004 2.39184,0.0246 3.37028,-0.28537 z m 33.96329,-21.87611 c 0.55412,-0.79822 0.54477,-1.96913 -0.0214,-2.68118 -0.23578,-0.29652 -1.53684,-1.24696 -3.08675,-2.25491 -3.16131,-2.05588 -3.89622,-2.35254 -5.80011,-2.34133 -2.06765,0.0122 -2.42132,0.1803 -8.16985,3.88346 l -5.09372,3.28134 5.71343,3.66978 5.71343,3.66979 5.17328,-3.32652 c 4.11703,-2.64733 5.25463,-3.44369 5.57169,-3.90043 z"
       id="path1207"
       inkscape:connector-curvature="0" />
    <path
       style="opacity:1;fill:#ffffff;fill-opacity:0.87939698;fill-rule:nonzero;stroke:none;stroke-width:1.06500006;stroke-linecap:butt;stroke-linejoin:miter;stroke-miterlimit:4;stroke-dasharray:none;stroke-dashoffset:0;stroke-opacity:1;paint-order:stroke fill markers"
       d="m 246.50976,161.50927 c -0.45101,-0.18223 -0.92331,-0.60054 -1.04957,-0.92957 -0.12626,-0.32903 -0.24125,-6.01911 -0.25556,-12.64463 -0.0143,-6.62553 -0.12883,-12.31433 -0.25451,-12.6418 -0.20148,-0.52511 0.91797,-0.5954 9.4823,-0.5954 h 9.71076 l -0.11242,11.36236 c -0.0618,6.2493 -0.1928,12.10117 -0.29107,13.00415 -0.31104,2.85804 -0.21838,2.8285 -8.78549,2.80084 -4.19346,-0.0136 -7.99346,-0.17372 -8.44444,-0.35595 z m 10.64789,-9.42796 0.11653,-2.23363 h 2.31134 2.31135 v -2.33074 -2.33074 h -2.33074 -2.33074 v -2.13651 -2.13651 h -2.7192 -2.71918 v 2.16627 2.16628 l -1.26249,-0.0691 c -3.46678,-0.18981 -3.39899,-0.23647 -3.39899,2.34033 v 2.33074 h 2.33074 2.33074 v 2.11307 2.11306 l 1.45669,0.16087 c 0.80121,0.0885 1.98115,0.14273 2.6221,0.12056 1.1408,-0.0395 1.16782,-0.0874 1.28185,-2.27393 z"
       id="path1260"
       inkscape:connector-curvature="0" />
    <path
       style="opacity:1;fill:#ffffff;fill-opacity:0.87939698;fill-rule:nonzero;stroke:none;stroke-width:1.06500006;stroke-linecap:butt;stroke-linejoin:miter;stroke-miterlimit:4;stroke-dasharray:none;stroke-dashoffset:0;stroke-opacity:1;paint-order:stroke fill markers"
       d="m 247.52399,117.47149 v -1.03109 h 6.9922 c 6.73324,0 6.99222,0.0288 6.99222,0.77692 0,0.67806 -0.25948,0.77711 -2.03938,0.77849 -1.12168,7.9e-4 -4.26818,0.11524 -6.99223,0.25417 l -4.95281,0.25261 z"
       id="path1266"
       inkscape:connector-curvature="0" />
    <path
       style="opacity:1;fill:#ffffff;fill-opacity:0.87939698;fill-rule:nonzero;stroke:none;stroke-width:1.06500006;stroke-linecap:butt;stroke-linejoin:miter;stroke-miterlimit:4;stroke-dasharray:none;stroke-dashoffset:0;stroke-opacity:1;paint-order:stroke fill markers"
       d="m 247.38154,164.73551 c -2.60025,-0.19163 -3.88499,-0.88637 -4.83024,-2.61201 -0.58033,-1.05947 -0.67429,-2.92356 -0.77885,-15.45336 -0.11705,-14.02855 -0.1057,-14.27441 0.73522,-15.92274 0.46975,-0.92081 1.5284,-2.47385 2.35252,-3.45123 1.89222,-2.24405 1.92466,-3.2498 0.13883,-4.30347 -1.66508,-0.98241 -1.9068,-2.72877 -0.48559,-3.50816 1.24396,-0.68218 18.77798,-0.68734 20.00551,-0.006 1.42018,0.78838 1.17928,2.53177 -0.48556,3.51405 -1.81068,1.06833 -1.75858,2.10785 0.22603,4.5095 3.04496,3.68482 2.88163,2.62746 2.88163,18.65514 0,12.6006 -0.0801,14.54935 -0.6492,15.80381 -1.09715,2.41825 -2.2211,2.73768 -10.01708,2.84687 -3.74785,0.0525 -7.83979,0.0198 -9.09322,-0.0725 z m 17.06475,-2.48197 1.14094,-1.19012 0.1942,-11.14338 c 0.10684,-6.12885 0.13203,-12.49812 0.056,-14.15391 l -0.13825,-3.01054 h -11.2241 -11.22413 l -0.0456,5.14705 c -0.0251,2.83088 -0.15616,8.93277 -0.29133,13.55976 -0.13518,4.62698 -0.12877,8.33999 0.0143,8.25112 0.143,-0.0889 0.4623,0.45131 0.70953,1.2004 0.81058,2.45609 1.12771,2.52975 10.8921,2.52975 h 8.77541 z m 0.72247,-30.61479 c 0.22617,-0.36595 -1.33593,-2.62215 -3.13333,-4.52561 -1.04497,-1.10664 -3.21767,-2.1305 -5.70166,-2.68682 -1.94286,-0.43513 -0.90856,-1.17437 2.09851,-1.49987 2.94386,-0.31865 5.67828,-1.3216 5.504,-2.01879 -0.14812,-0.59241 -18.93726,-0.52494 -18.93726,0.068 0,0.49643 2.68644,2.45698 3.36669,2.45698 0.28001,0 0.29205,0.16088 0.0363,0.48557 -0.21034,0.26706 -0.48678,0.92258 -0.61431,1.45671 -0.12756,0.53413 -1.11308,2.01241 -2.19009,3.28507 -1.07701,1.27266 -1.95821,2.44425 -1.95821,2.60355 0,0.39046 3.28483,0.55116 13.08749,0.6403 4.52749,0.0412 8.32633,-0.0781 8.44187,-0.26508 z"
       id="path1268"
       inkscape:connector-curvature="0" />
    <path
       style="opacity:1;fill:#d40000;fill-opacity:0.87939698;fill-rule:nonzero;stroke:none;stroke-width:4.02519703;stroke-linecap:butt;stroke-linejoin:miter;stroke-miterlimit:4;stroke-dasharray:none;stroke-dashoffset:0;stroke-opacity:1;paint-order:stroke fill markers"
       d="m 1710.0858,-294.72848 c -11.0308,-2.80437 -21.2091,-9.18597 -24.521,-15.37428 -1.4238,-2.66048 -2.1909,-24.95636 -2.2678,-65.91274 l -0.1161,-61.89227 9.6123,-8.33891 c 7.975,-6.91852 9.03,-8.56239 6.1934,-9.65088 -2.9296,-1.12419 -3.419,-4.06248 -3.419,-20.52856 v -19.2166 l 11.2746,-0.7 c 6.2009,-0.38501 11.5686,-0.0255 11.9281,0.79892 0.8526,1.95543 19.4087,1.95543 20.2614,0 0.3595,-0.82441 5.7271,-1.18393 11.9281,-0.79892 l 11.2745,0.7 v 19.42638 c 0,11.64372 -0.7855,19.42637 -1.9608,19.42637 -4.2501,0 -1.6361,5.94952 3.8635,8.79347 10.6938,5.53001 10.8424,6.54266 10.8424,73.89231 v 62.09755 l -4.902,5.32566 c -2.696,2.92911 -8.4313,6.91395 -12.7451,8.85521 -10.5447,4.74531 -34.5692,6.32025 -47.2465,3.09729 z m 41.8456,-12.13627 c 14.9662,-6.25326 14.2245,-2.80648 14.2245,-66.10305 0,-62.53679 -0.5044,-65.43249 -12.2437,-70.29508 -3.7805,-1.56594 -5.9846,-4.1783 -6.7487,-7.9988 l -1.1347,-5.67339 -16.8137,0.56274 c -16.1223,0.53961 -16.8609,0.76435 -17.9606,5.46471 -0.6307,2.69608 -3.5523,6.06088 -6.4924,7.47734 -11.5351,5.55741 -11.8646,7.3616 -12.7708,69.92318 l -0.8297,57.28162 5.919,4.2147 c 3.2555,2.31808 7.9968,5.04691 10.5364,6.06406 7.625,3.05403 36.226,2.46152 44.3144,-0.91803 z m 2.4598,-168.55267 v -10.78431 h -25.4902 -25.4902 v 10.78431 10.78431 h 25.4902 25.4902 z"
       id="path1298"
       inkscape:connector-curvature="0"
       transform="matrix(0.26458333,0,0,0.26458333,0,101)" />
    <path
       style="opacity:1;fill:#d40000;fill-opacity:0.87939698;fill-rule:nonzero;stroke:none;stroke-width:4.02519703;stroke-linecap:butt;stroke-linejoin:miter;stroke-miterlimit:4;stroke-dasharray:none;stroke-dashoffset:0;stroke-opacity:1;paint-order:stroke fill markers"
       d="m 1721.0578,-360.71154 v -9.80392 h -8.8235 c -8.7768,0 -8.8235,-0.0363 -8.8235,-6.86274 0,-6.82644 0.047,-6.86275 8.8235,-6.86275 h 8.8235 v -8.82353 -8.82353 h 7.8432 7.8431 v 8.82353 8.82353 h 8.8235 c 8.7769,0 8.8236,0.0363 8.8236,6.86275 0,6.82643 -0.047,6.86274 -8.8236,6.86274 h -8.8235 v 9.80392 9.80392 h -7.8431 -7.8432 z"
       id="path1300"
       inkscape:connector-curvature="0"
       transform="matrix(0.26458333,0,0,0.26458333,0,101)" />
    <path
       style="opacity:1;fill:#d40000;fill-opacity:0.87939698;fill-rule:nonzero;stroke:none;stroke-width:4.02519703;stroke-linecap:butt;stroke-linejoin:miter;stroke-miterlimit:4;stroke-dasharray:none;stroke-dashoffset:0;stroke-opacity:1;paint-order:stroke fill markers"
       d="m 1808.2388,-318.65236 c -11.8053,-5.63579 -19.7399,-18.57501 -19.7399,-32.19048 0,-9.18463 3.5251,-17.84426 12.1585,-29.86754 9.672,-13.46987 17.355,-27.57311 20.5603,-37.74154 1.2506,-3.96733 2.8129,-7.03363 3.4717,-6.81401 0.6589,0.21962 2.4529,3.86521 3.9868,8.1013 3.7987,10.49111 10.7372,22.83366 20.4045,36.29698 12.4852,17.38765 15.0463,30.76147 8.6478,45.15863 -6.0725,13.66352 -14.6075,18.99047 -31.5249,19.6756 -10.0964,0.40889 -12.2933,0.0886 -17.9648,-2.61894 z m 25.1449,-4.73123 c 11.8329,-3.28687 19.2041,-13.24806 19.2041,-25.95185 0,-8.45173 -2.8488,-15.49425 -10.8102,-26.72353 -6.6248,-9.34413 -11.1342,-18.07519 -14.2493,-27.58942 -1.2233,-3.73614 -2.3959,-6.61192 -2.6058,-6.39064 -0.2099,0.22128 -2.1829,5.08702 -4.3844,10.81276 -2.2015,5.72573 -7.2325,15.21583 -11.18,21.0891 -9.8029,14.58509 -12.1254,20.20363 -12.0823,29.22837 0.056,11.76984 6.3043,21.20349 16.8238,25.4018 4.1701,1.66427 13.5214,1.72412 19.2841,0.12341 z"
       id="path1304"
       inkscape:connector-curvature="0"
       transform="matrix(0.26458333,0,0,0.26458333,0,101)" />
    <path
       style="opacity:1;fill:#d40000;fill-opacity:0.87939698;fill-rule:nonzero;stroke:none;stroke-width:4.02519703;stroke-linecap:butt;stroke-linejoin:miter;stroke-miterlimit:4;stroke-dasharray:none;stroke-dashoffset:0;stroke-opacity:1;paint-order:stroke fill markers"
       d=""
       id="path1306"
       inkscape:connector-curvature="0"
       transform="matrix(0.26458333,0,0,0.26458333,0,101)" />
    <path
       style="opacity:1;fill:#d40000;fill-opacity:0.87939698;fill-rule:nonzero;stroke:none;stroke-width:4.02519703;stroke-linecap:butt;stroke-linejoin:miter;stroke-miterlimit:4;stroke-dasharray:none;stroke-dashoffset:0;stroke-opacity:1;paint-order:stroke fill markers"
       d="m 1820.4521,-341.89595 v -5.75157 h -5.7516 c -5.7212,0 -5.7516,-0.0237 -5.7516,-4.47345 0,-4.44977 0.03,-4.47344 5.7516,-4.47344 h 5.7516 v -6.39064 -6.39064 h 4.4734 4.4735 v 6.39064 6.39064 h 6.3906 6.3906 v 4.47344 4.47345 h -6.3906 -6.3906 v 5.75157 c 0,5.72114 -0.024,5.75158 -4.4735,5.75158 -4.4498,0 -4.4734,-0.0304 -4.4734,-5.75158 z"
       id="path1308"
       inkscape:connector-curvature="0"
       transform="matrix(0.26458333,0,0,0.26458333,0,101)" />
    <path
       style="opacity:1;fill:#d40000;fill-opacity:0.87939698;fill-rule:nonzero;stroke:none;stroke-width:4.02519703;stroke-linecap:butt;stroke-linejoin:miter;stroke-miterlimit:4;stroke-dasharray:none;stroke-dashoffset:0;stroke-opacity:1;paint-order:stroke fill markers"
       d="m 1714.6702,-520.82977 c 0.7591,-27.97539 1.4227,-30.26275 9.4204,-32.47104 6.1134,-1.68797 11.151,-0.55962 14.7913,3.31303 2.8625,3.04512 2.9804,4.03768 3.4004,28.61601 0.3747,21.92378 0.17,25.46147 -1.4735,25.46147 -1.6046,0 -1.9793,-3.62281 -2.3523,-22.74534 -0.372,-19.07008 -0.8077,-23.30054 -2.6965,-26.18132 -3.1118,-4.74587 -7.9436,-5.7519 -12.2374,-2.54794 l -3.4035,2.53972 -0.3472,24.46744 c -0.3402,23.98428 -0.4007,24.46744 -3.0624,24.46744 -2.6987,0 -2.7112,-0.15323 -2.0393,-24.91947 z"
       id="path1310"
       inkscape:connector-curvature="0"
       transform="matrix(0.26458333,0,0,0.26458333,0,101)" />
    <path
       style="opacity:1;fill:#ffffff;fill-opacity:0.87939698;fill-rule:nonzero;stroke:none;stroke-width:1.06500006;stroke-linecap:butt;stroke-linejoin:miter;stroke-miterlimit:4;stroke-dasharray:none;stroke-dashoffset:0;stroke-opacity:1;paint-order:stroke fill markers"
       d="m 321.57525,225.85176 c -0.10652,-0.14848 -0.19365,-0.60407 -0.19365,-1.01242 0,-0.73517 -0.008,-0.74247 -0.76656,-0.74634 -2.55357,-0.013 -4.88247,-1.59396 -6.03516,-4.0969 l -0.541,-1.17471 -0.0527,-5.5696 c -0.0627,-6.62513 0.0322,-7.34723 1.20452,-9.16507 1.26754,-1.96545 2.47743,-2.58073 5.58575,-2.84059 l 1.89619,-0.15852 -0.007,-4.86277 c -0.006,-3.81665 -0.0604,-5.05637 -0.25521,-5.7627 -0.3893,-1.41201 -0.41804,-1.76974 -0.1784,-2.22155 0.1891,-0.35654 0.51116,-0.43939 2.08419,-0.53616 1.02328,-0.063 2.27027,-0.0431 2.77109,0.0441 0.78483,0.13671 0.92414,0.23405 1.00892,0.70496 0.0543,0.30171 -0.0178,0.95134 -0.1612,1.45078 -0.21217,0.73922 -0.25958,1.84874 -0.25958,6.07444 v 5.17002 h 1.54384 1.54381 l -0.0511,-5.23082 c -0.0479,-4.90613 -0.0728,-5.2797 -0.40088,-6.01826 -0.31378,-0.70632 -0.32675,-0.84842 -0.12591,-1.37946 0.24956,-0.65987 0.59539,-0.92171 0.95985,-0.72673 0.30996,0.16582 0.30996,0.44686 0,0.61268 -0.13314,0.0712 -0.24207,0.33516 -0.24207,0.58652 0,0.365 0.10562,0.45764 0.52449,0.4601 0.67741,0.004 1.25068,0.22084 1.25068,0.47313 0,0.10931 -0.29049,0.19874 -0.64553,0.19874 h -0.6455 v 5.51205 5.51205 h 1.85584 1.85585 v -3.73094 c 0,-2.88463 0.0458,-3.70973 0.20173,-3.63744 0.14779,0.0685 0.21358,1.06617 0.24607,3.73094 l 0.0444,3.63744 h 1.60979 1.60977 v -1.2374 c 0,-0.68057 0.0708,-1.2374 0.15724,-1.2374 0.22859,0 0.64966,1.23227 0.64966,1.90118 v 0.57362 h 1.69448 1.69447 v -5.51205 -5.51205 h -1.69447 -1.69448 v 4.27465 c 0,2.35106 -0.0638,4.27465 -0.14162,4.27465 -0.45919,0 -0.58717,-0.85075 -0.67342,-4.47699 -0.0711,-2.99086 -0.1466,-3.88669 -0.37882,-4.49721 -0.2199,-0.57819 -0.25055,-0.883 -0.12679,-1.26164 0.25794,-0.78924 1.30764,-0.94433 4.35218,-0.64305 1.41521,0.14005 1.47402,0.16765 1.655,0.77681 0.16234,0.54637 0.13755,0.72971 -0.18374,1.35872 -0.35653,0.69805 -0.37413,0.93686 -0.44017,5.97264 l -0.0688,5.24552 h 1.65793 1.65795 l -0.0865,-5.23082 c -0.0718,-4.34232 -0.13438,-5.3701 -0.36837,-6.05076 -0.41316,-1.20187 -0.23685,-1.89664 0.5259,-2.07239 0.78305,-0.18042 2.04188,-0.17921 3.7266,0.004 1.16558,0.12648 1.37651,0.21511 1.58922,0.66769 0.2258,0.48043 0.2152,0.58926 -0.13361,1.37144 -0.36404,0.81632 -0.38105,1.05257 -0.4339,6.03337 l -0.055,5.18378 2.55638,0.24582 c 2.95716,0.28437 3.95994,0.6989 5.11274,2.11359 0.4123,0.50594 0.93214,1.46366 1.1866,2.18607 l 0.45285,1.28564 -0.007,5.51205 c -0.008,6.42879 -0.0825,6.97568 -1.16884,8.5948 -1.29721,1.9334 -2.69801,2.76741 -5.12029,3.04848 l -1.45006,0.16826 -0.0496,0.95617 -0.0496,0.95617 h -2.65346 -2.65347 v -1.01242 -1.01242 h -10.4895 -10.4896 v 1.01242 1.01242 h -2.54977 c -1.76798,0 -2.60914,-0.0828 -2.74342,-0.26998 z m 3.90131,-1.33301 c 0.0555,-0.38668 0.10086,-0.99414 0.10086,-1.3499 v -0.64682 h 9.89942 c 5.44469,0 10.78228,-0.0662 11.86132,-0.14706 l 1.96187,-0.14706 v 0.79388 c 0,0.43664 0.0454,1.11028 0.10086,1.49696 l 0.10086,0.70307 h 1.27086 1.27085 v -1.43869 -1.43868 l 1.89619,-0.0884 c 2.19987,-0.10256 2.95564,-0.46595 4.1433,-1.99216 1.08964,-1.40026 1.22286,-2.24465 1.22095,-7.73812 -0.002,-4.27904 -0.0217,-4.57506 -0.38512,-5.66341 -0.44329,-1.32722 -0.9717,-2.07356 -2.04436,-2.88746 -1.29948,-0.98602 -2.70762,-1.0529 -20.64604,-0.98052 l -16.54126,0.0668 -1.1198,0.73927 c -1.33994,0.88458 -2.26792,2.16453 -2.52281,3.47963 -0.11065,0.57091 -0.18766,2.85796 -0.19127,5.68056 -0.007,5.26994 0.0697,5.73461 1.19854,7.28716 0.97018,1.33433 1.85651,1.75624 4.65256,2.21477 l 1.04897,0.17202 0.0507,1.12055 c 0.0279,0.61631 0.13683,1.1969 0.24207,1.29021 0.10526,0.0933 0.67247,0.17118 1.2605,0.17308 1.06902,0.003 1.06913,0.003 1.16999,-0.69962 z m 1.55327,-28.88203 v -5.51205 h -1.85584 -1.85587 v 5.51205 5.51205 h 1.85587 1.85584 z m 24.04535,0 v -5.51205 h -1.77515 -1.77517 v 5.51205 5.51205 h 1.77517 1.77515 z m -23.74889,-6.49414 c 0.41649,-0.37366 -0.0883,-0.61777 -1.52383,-0.7369 -1.70949,-0.14184 -2.70057,0.10167 -2.78091,0.68329 -0.0524,0.37892 0.0868,0.40151 2.01636,0.32711 1.13994,-0.0439 2.16972,-0.16703 2.28838,-0.2735 z m 16.25349,0.0625 c 0.24095,-0.54351 -0.31276,-0.76736 -2.09303,-0.84615 -1.24441,-0.055 -1.94695,0.008 -2.20055,0.19706 -0.35868,0.26761 -0.3613,0.28943 -0.0705,0.58583 0.38021,0.38757 4.19585,0.44289 4.36413,0.0632 z m 7.47524,0.10397 c 0.88988,-0.24812 0.59631,-0.70976 -0.56129,-0.88258 -1.88935,-0.28208 -3.65429,0.16215 -3.35215,0.84372 0.0939,0.21175 3.18334,0.24243 3.91344,0.0389 z"
       id="path1312"
       inkscape:connector-curvature="0" />
    <path
       style="opacity:1;fill:#ffffff;fill-opacity:0.87939698;fill-rule:nonzero;stroke:none;stroke-width:1.06500006;stroke-linecap:butt;stroke-linejoin:miter;stroke-miterlimit:4;stroke-dasharray:none;stroke-dashoffset:0;stroke-opacity:1;paint-order:stroke fill markers"
       d="m 321.94641,219.38957 c -1.44944,-0.14772 -1.75606,-0.33063 -2.47923,-1.47889 l -0.50627,-0.80386 v -4.44615 -4.44614 l 0.60517,-0.80831 c 1.3017,-1.73864 0.3879,-1.62488 13.13929,-1.63567 l 11.4045,-0.01 0.4365,0.56245 c 0.43087,0.55517 0.43508,0.5559 0.32492,0.0562 l -0.11161,-0.50621 h 4.74832 4.74835 l 0.74648,0.79464 c 0.41057,0.43705 0.83649,1.0192 0.94644,1.29364 0.22376,0.55845 0.39368,7.08254 0.21839,8.38518 -0.13019,0.96745 -0.90409,2.23187 -1.72218,2.81371 -0.59616,0.42402 -1.05847,0.4356 -15.91102,0.39865 -8.41337,-0.0209 -15.87799,-0.0973 -16.58805,-0.16965 z m 28.39358,-1.29245 2.57307,-0.14877 0.57382,-0.73258 0.57381,-0.73257 0.0514,-3.75531 c 0.0502,-3.66487 0.0425,-3.76877 -0.32276,-4.31387 -0.44912,-0.67038 -1.12983,-1.19074 -1.55769,-1.19074 -0.43823,0 -0.50624,0.55242 -0.50877,4.13239 l -0.002,3.11997 -0.61155,0.85257 c -1.05526,1.47116 -2.60828,1.40056 -3.78601,-0.1721 l -0.44379,-0.59261 v -3.66583 c 0,-4.25732 0.14458,-3.96987 -1.93843,-3.85406 l -1.20843,0.0672 -0.0904,3.93718 c -0.0497,2.16545 -0.10417,3.96105 -0.12103,3.99024 -0.0168,0.0292 -0.32224,0.32205 -0.67861,0.65083 -1.10497,1.01945 -2.7573,0.75009 -3.62895,-0.59158 -0.28712,-0.44194 -0.3312,-0.9058 -0.40307,-4.24144 l -0.0807,-3.74523 -1.47002,-0.0642 -1.47003,-0.0642 -0.10341,1.05184 c -0.0569,0.5785 -0.10343,2.13626 -0.10343,3.46166 0,3.52294 -0.2328,4.14778 -1.75875,4.72062 -0.55058,0.2067 -0.8482,0.18758 -1.55789,-0.10004 -1.35471,-0.54905 -1.43303,-0.82767 -1.50062,-5.33939 l -0.0566,-3.77865 h -1.49315 -1.49314 l -0.10437,1.72131 c -0.0574,0.94672 -0.10436,2.57161 -0.10436,3.61087 0,2.13336 -0.23664,3.02931 -0.93066,3.52369 -1.15759,0.8246 -2.38188,0.61824 -3.34798,-0.56432 l -0.56272,-0.68879 v -3.68889 c 0,-3.17145 -0.0349,-3.68889 -0.24849,-3.68889 -0.42014,0 -1.5058,0.87515 -1.69408,1.3656 -0.098,0.25531 -0.21775,2.10264 -0.26609,4.10518 l -0.0879,3.64098 0.59175,0.78744 0.59176,0.78743 2.21064,0.12498 c 3.29272,0.18615 23.60366,0.23372 26.5698,0.0623 z m -24.18004,-2.91378 c 0.71212,-0.47111 0.77137,-0.83584 0.78116,-4.81032 l 0.008,-3.26223 -1.8155,-0.0636 -1.81552,-0.0636 v 3.56786 c 0,3.41418 0.0157,3.58761 0.36311,4.02631 0.83159,1.05 1.54393,1.22403 2.47872,0.60561 z m 8.38749,-0.37873 c 0.31634,-0.51272 0.36809,-0.9341 0.47253,-3.84636 0.0645,-1.79882 0.0746,-3.42568 0.0224,-3.61527 -0.0773,-0.28076 -0.42499,-0.34468 -1.87509,-0.34468 h -1.78023 v 3.36007 c 0,1.84805 0.0693,3.6141 0.15394,3.92458 0.36856,1.35144 2.28889,1.68465 3.00646,0.52166 z m 7.80179,0.41385 c 0.25111,-0.18104 0.50167,-0.49304 0.55679,-0.69335 0.0551,-0.20031 0.10026,-1.97578 0.10026,-3.9455 v -3.58131 h -1.69447 -1.69448 v 3.6922 3.69219 l 0.49652,0.58246 c 0.57465,0.67412 1.50537,0.77958 2.23538,0.25331 z m 8.25423,-0.32849 0.47172,-0.65764 v -3.64835 -3.64836 l -0.84723,0.14188 c -0.46597,0.078 -1.2648,0.14275 -1.77517,0.14382 l -0.92792,0.002 v 3.59159 3.5916 l 0.6023,0.57057 c 0.86943,0.82364 1.84774,0.78924 2.4763,-0.0871 z"
       id="path1314"
       inkscape:connector-curvature="0" />
    <path
       style="opacity:1;fill:#ffffff;fill-opacity:0.87939698;fill-rule:nonzero;stroke:none;stroke-width:1.06500006;stroke-linecap:butt;stroke-linejoin:miter;stroke-miterlimit:4;stroke-dasharray:none;stroke-dashoffset:0;stroke-opacity:1;paint-order:stroke fill markers"
       d="m 335.30046,193.10734 c -0.13309,-0.0629 -0.20172,-0.58275 -0.20172,-1.52781 v -1.43241 l -0.91518,-0.0675 c -1.25179,-0.0922 -1.38871,-0.62992 -0.16042,-0.62992 1.0271,0 1.39836,-0.15206 1.39836,-0.57274 0,-0.32473 -0.74659,-0.52053 -2.32723,-0.61036 -0.5914,-0.0336 -0.98088,-0.16147 -1.02207,-0.33553 -0.0505,-0.21364 0.36329,-0.28123 1.72207,-0.28123 1.57344,0 1.82743,0.0542 2.11136,0.44997 0.37991,0.52963 0.41026,1.07561 0.0947,1.70364 -0.1254,0.24963 -0.28879,1.11658 -0.36309,1.92656 -0.0935,1.01956 -0.19715,1.44334 -0.3368,1.3773 z"
       id="path1316"
       inkscape:connector-curvature="0" />
    <rect
       style="opacity:1;fill:#0088aa;fill-opacity:0.87939698;fill-rule:nonzero;stroke:none;stroke-width:1.08412099;stroke-linecap:butt;stroke-linejoin:miter;stroke-miterlimit:4;stroke-dasharray:none;stroke-dashoffset:0;stroke-opacity:1;paint-order:stroke fill markers"
       id="rect1135-9-0"
       width="2.9519188"
       height="56.817184"
       x="249.78761"
       y="-225.72231"
       transform="matrix(0.10063358,0.99492356,-0.93376011,0.35789952,0,0)" />
    <rect
       style="opacity:1;fill:#0088aa;fill-opacity:0.87939698;fill-rule:nonzero;stroke:none;stroke-width:1.08412099;stroke-linecap:butt;stroke-linejoin:miter;stroke-miterlimit:4;stroke-dasharray:none;stroke-dashoffset:0;stroke-opacity:1;paint-order:stroke fill markers"
       id="rect1135-9-3"
       width="2.9519188"
       height="56.817184"
       x="-4.4695897"
       y="-373.87964"
       transform="matrix(-0.72310974,0.69073317,-0.85612075,-0.51677584,0,0)" />
    <rect
       style="opacity:1;fill:#0088aa;fill-opacity:0.87939698;fill-rule:nonzero;stroke:none;stroke-width:1.08412099;stroke-linecap:butt;stroke-linejoin:miter;stroke-miterlimit:4;stroke-dasharray:none;stroke-dashoffset:0;stroke-opacity:1;paint-order:stroke fill markers"
       id="rect1135-9-5"
       width="2.9519188"
       height="56.817184"
       x="80.658989"
       y="-252.72234"
       transform="matrix(-0.78497943,0.61952183,-0.80361617,-0.59514792,0,0)" />
  </g>
</svg>
