<?xml version="1.0" encoding="UTF-8" standalone="no"?>
<!-- Created with Inkscape (http://www.inkscape.org/) -->

<svg
   xmlns:dc="http://purl.org/dc/elements/1.1/"
   xmlns:cc="http://creativecommons.org/ns#"
   xmlns:rdf="http://www.w3.org/1999/02/22-rdf-syntax-ns#"
   xmlns:svg="http://www.w3.org/2000/svg"
   xmlns="http://www.w3.org/2000/svg"
   xmlns:sodipodi="http://sodipodi.sourceforge.net/DTD/sodipodi-0.dtd"
   xmlns:inkscape="http://www.inkscape.org/namespaces/inkscape"
   width="355mm"
   height="210mm"
   viewBox="0 0 355 210"
   version="1.1"
   id="svg8"
   inkscape:version="0.92.2 (5c3e80d, 2017-08-06)"
   sodipodi:docname="lineacorazon.svg">
  <defs
     id="defs2" />
  <sodipodi:namedview
     id="base"
     pagecolor="#ffffff"
     bordercolor="#666666"
     borderopacity="1.0"
     inkscape:pageopacity="0.0"
     inkscape:pageshadow="2"
     inkscape:zoom="0.5"
     inkscape:cx="586.89284"
     inkscape:cy="507.37924"
     inkscape:document-units="mm"
     inkscape:current-layer="layer1"
     showgrid="false"
     width="298mm"
     inkscape:window-width="1366"
     inkscape:window-height="705"
     inkscape:window-x="-8"
     inkscape:window-y="-8"
     inkscape:window-maximized="1" />
  <metadata
     id="metadata5">
    <rdf:RDF>
      <cc:Work
         rdf:about="">
        <dc:format>image/svg+xml</dc:format>
        <dc:type
           rdf:resource="http://purl.org/dc/dcmitype/StillImage" />
        <dc:title></dc:title>
      </cc:Work>
    </rdf:RDF>
  </metadata>
  <g
     inkscape:label="Capa 1"
     inkscape:groupmode="layer"
     id="layer1"
     transform="translate(0,-87)">
    <path
       style="fill:#ff0000;stroke-width:1"
       d="m 38.923128,151.63887 c -0.0012,-0.409 -0.209844,-3.79539 -0.463422,-7.52535 -0.253566,-3.72996 -0.468524,-7.02268 -0.477682,-7.31715 -0.0089,-0.29447 -0.482192,-7.12083 -1.051197,-15.16968 -0.568993,-8.04888 -0.978844,-15.07599 -0.910772,-15.61586 0.06802,-0.53988 0.0141,-0.98158 -0.120046,-0.98158 -0.134088,0 -0.352283,-2.40929 -0.484872,-5.354005 -0.243288,-5.403151 -0.592689,-6.702063 -1.006959,-3.74342 -0.124076,0.885833 -0.358748,1.698768 -0.521569,1.806555 -0.162821,0.107787 -0.198634,0.611598 -0.07962,1.119645 0.150641,0.642761 0.101528,0.84759 -0.1616,0.673454 -0.236761,-0.156703 -0.30938,-0.05858 -0.194299,0.262627 0.101023,0.282084 -0.199224,2.579264 -0.66732,5.104854 -1.799906,9.71118 -4.877867,26.77784 -5.041459,27.95369 -0.198507,1.42693 -0.376281,1.70652 -0.7903,1.24294 -0.163627,-0.18325 -0.922915,-5.07145 -1.687293,-10.86271 -0.764389,-5.79124 -1.549863,-10.69017 -1.74551,-10.88648 -0.239246,-0.24004 -0.290727,-0.23165 -0.15723,0.0256 0.109211,0.2104 -0.296105,2.37877 -0.90062,4.8186 l -1.099101,4.43606 -10.382044,0.0943 c -9.228183,0.084 -10.38202885,0.0325 -10.38202885,-0.46335 0,-0.49559 1.11322245,-0.54584 9.99867085,-0.45126 5.499262,0.0586 9.998556,0.0766 9.998418,0.0401 -0.0025,-0.75929 2.85042,-11.13915 3.155293,-11.47869 0.510041,-0.56804 0.614629,0.005 2.21876,12.16969 0.588959,4.46613 1.169516,8.12024 1.290114,8.12024 0.120548,0 0.40194,-1.08419 0.625211,-2.40931 1.602859,-9.51276 6.510479,-36.351968 6.673489,-36.496478 0.110723,-0.09821 0.202702,-0.567137 0.204416,-1.042161 0.0012,-0.475038 0.181502,-0.927398 0.399546,-1.005225 0.270583,-0.09659 0.372451,0.318186 0.320868,1.306534 -0.04157,0.796432 0.01007,1.489719 0.115132,1.540631 0.104802,0.05086 0.684615,7.481083 1.28835,16.511509 0.603734,9.03043 1.383,20.43446 1.731707,25.3423 0.348707,4.90785 0.63549,9.76661 0.637317,10.79726 0.0076,4.12586 0.62375,1.33417 2.128066,-9.63723 0.868071,-6.3311 1.660462,-12.0262 1.760856,-12.65575 l 0.182546,-1.14463 5.810484,0.005 5.810467,0.005 1.05892,2.29976 c 0.582394,1.26486 1.164782,2.29975 1.294182,2.29975 0.12939,0 0.334372,-0.48326 0.455504,-1.07392 0.130307,-0.63543 0.366275,-0.97724 0.577894,-0.83717 0.216194,0.14309 0.260333,0.0682 0.111609,-0.18964 -0.339338,-0.58803 3.799837,-13.66765 4.271287,-13.49708 0.204089,0.0739 0.389309,0.60191 0.411629,1.17351 0.02233,0.57161 0.121048,1.28021 0.219513,1.57469 0.336865,1.00785 1.629261,14.67617 1.438137,15.20958 -0.107828,0.30081 -0.04754,0.43768 0.138637,0.31452 0.191088,-0.12655 0.329477,0.26549 0.329477,0.93328 0,0.63326 0.0912,1.05374 0.202524,0.93445 0.111351,-0.11925 0.879262,-2.03335 1.706398,-4.25346 0.827129,-2.22011 1.654198,-4.23733 1.837957,-4.48273 0.254865,-0.34039 2.892603,-0.44617 11.124893,-0.44617 5.934941,-3e-5 10.790803,-0.13897 10.790803,-0.30882 0,-0.16984 -0.27153,-0.69186 -0.603392,-1.16003 -1.425105,-2.01048 -2.527021,-5.11393 -2.520063,-7.09758 0.003,-1.07972 0.09674,-2.28438 0.206547,-2.67701 0.109842,-0.39264 0.211145,-0.92413 0.225174,-1.18109 0.014,-0.25699 0.173765,-0.36911 0.354962,-0.24917 0.181202,0.11993 0.260355,0.01 0.175889,-0.24663 -0.355467,-1.07557 3.604127,-4.45162 4.821271,-4.11073 0.369832,0.1036 0.672428,0.0428 0.672428,-0.13521 0,-1.01357 5.09551,0.19469 6.166645,1.46227 0.58812,0.696 1.25293,0.52734 2.41369,-0.6123 1.12843,-1.10789 4.22645,-1.4565 6.46338,-0.72731 1.48591,0.48437 4.40595,2.98445 4.10166,3.51177 -0.10328,0.17889 -0.053,0.32527 0.11174,0.32527 0.39322,0 1.13224,1.75017 0.90514,2.14368 -0.097,0.16804 -0.0239,0.40641 0.16241,0.52971 0.42932,0.28417 0.44579,2.92456 0.0202,3.20638 -0.17531,0.11601 -0.24007,0.4305 -0.14394,0.69883 0.0961,0.26833 0.025,0.58703 -0.15815,0.70825 -0.18311,0.12115 -0.26263,0.63565 -0.1767,1.14321 0.29543,1.74469 -1.46594,2.68019 -2.21687,1.17745 -0.29693,-0.59421 -0.25401,-0.88268 0.21372,-1.43616 0.43123,-0.51035 0.65146,-0.57789 0.83686,-0.25664 0.36483,0.63224 0.76662,-1.27863 0.76356,-3.63149 -6.2e-4,-1.29492 -0.23998,-2.44913 -0.7,-3.3909 -0.73764,-1.51001 -2.56869,-3.48287 -2.90159,-3.12634 -0.10859,0.11629 -0.19739,0.0581 -0.19739,-0.1291 0,-0.40092 -0.92894,-0.59321 -2.99954,-0.62092 -2.33177,-0.0312 -3.11954,0.23562 -4.35406,1.47457 -1.27788,1.28249 -1.58184,1.38718 -1.8505,0.63729 -0.29604,-0.82619 -2.791751,-2.03465 -4.61911,-2.23662 -4.18419,-0.4625 -8.109758,4.00014 -7.366425,8.37428 0.322574,1.89814 0.348942,2.00125 0.638586,2.49781 0.143142,0.2454 0.152376,0.64694 0.02045,0.89233 -0.131858,0.2454 -0.120549,0.33088 0.02519,0.18996 0.145693,-0.14092 0.776651,0.66218 1.402121,1.78466 0.62548,1.1225 1.355185,2.21921 1.621572,2.43718 1.36277,1.11496 0.523011,1.20464 -11.070812,1.18221 -10.843216,-0.021 -11.575568,0.0176 -11.886298,0.6273 -0.182116,0.35731 -0.418933,0.72997 -0.526255,0.82814 -0.107321,0.0982 -0.195098,0.33909 -0.195098,0.5354 0,0.83469 -3.362404,9.10182 -3.701875,9.10182 -0.331314,0 -0.849553,-3.61137 -1.331716,-9.28028 -0.07507,-0.88343 -0.354108,-3.45334 -0.619929,-5.71095 -0.265821,-2.25761 -0.48982,-4.33764 -0.49775,-4.62228 -0.03123,-1.12199 -0.611385,0.3928 -2.342672,6.11716 -0.997483,3.29808 -1.944147,5.86214 -2.121103,5.74503 -0.175754,-0.11628 -0.223207,-0.0445 -0.105427,0.15956 0.292866,0.5075 -0.434443,2.64342 -0.814474,2.39189 -0.167814,-0.11103 -0.848965,-1.47617 -1.513675,-3.03352 l -1.208591,-2.83156 h -5.219492 -5.219471 l -1.805043,13.17995 c -1.047205,7.64635 -1.936374,13.09305 -2.117825,12.97293 -0.172031,-0.11386 -0.204163,-0.0188 -0.07143,0.21129 0.412445,0.71473 -0.143713,4.21315 -0.669791,4.21315 -0.257647,0 -0.469531,-0.33461 -0.470842,-0.74361 z m 124.607682,0.34825 c -0.023,-0.10967 -0.0692,-0.32001 -0.10266,-0.46724 -0.2447,-1.07452 -1.22912,-8.02785 -3.70152,-26.14539 -1.56722,-11.48435 -3.29274,-24.03455 -3.83449,-27.889343 -0.54175,-3.854808 -0.98502,-7.139481 -0.98502,-7.299301 0,-0.770179 -0.6172,0.619535 -1.1629,2.618423 -0.33497,1.226963 -0.74412,2.230847 -0.9092,2.230847 -0.16512,0 -0.21769,0.142962 -0.11678,0.317717 0.10091,0.174762 -0.25592,1.821119 -0.7928,3.658569 -6.46626,22.130478 -8.1578,27.738348 -8.58436,28.459388 -0.27562,0.46589 -0.34485,0.74363 -0.15385,0.6172 0.37846,-0.25051 -1.18509,5.10725 -1.64902,5.65064 -0.15644,0.18324 -0.36756,0.24409 -0.46918,0.13526 -0.10165,-0.10886 -0.70437,-3.63176 -1.33944,-7.82874 -1.41429,-9.34651 -1.47214,-9.64559 -1.82119,-9.41455 -0.15429,0.10211 -0.37896,0.66567 -0.49928,1.25237 -0.12031,0.58669 -0.32491,1.0667 -0.45465,1.0667 -0.12972,0 -0.25972,0.33922 -0.28889,0.75383 -0.0291,0.41458 -0.30928,1.05706 -0.6225,1.42771 -0.53931,0.63824 -1.2445,0.67394 -13.31348,0.67394 -11.02054,0 -12.76993,0.0725 -12.93583,0.53541 -0.10556,0.29446 -0.40546,0.53539 -0.66657,0.53539 -0.26108,0 -0.56102,0.24091 -0.66653,0.53533 -0.22176,0.61895 -4.32387,3.53602 -6.07341,4.31892 -1.23998,0.55485 -2.642752,0.37163 -2.25809,-0.29495 0.13433,-0.23277 0.0672,-0.28324 -0.169033,-0.12695 -0.215598,0.1427 -1.135459,-0.23046 -2.044121,-0.82926 -0.908673,-0.59878 -2.215256,-1.34069 -2.903523,-1.64866 -0.987126,-0.44172 -1.146976,-0.63069 -0.756924,-0.89483 0.314782,-0.21316 0.346878,-0.33682 0.0883,-0.34029 -0.223372,-0.002 -0.319811,-0.2464 -0.214302,-0.54087 0.327321,-0.9135 1.70249,-0.64224 2.18534,0.43104 0.257098,0.57144 1.335971,1.52037 2.639711,2.32172 l 2.204902,1.35527 1.53701,-0.92001 c 0.84535,-0.50602 1.71351,-0.80317 1.92927,-0.66036 0.24657,0.1632 0.30338,0.10562 0.15301,-0.15495 -0.13759,-0.23843 0.0114,-0.51758 0.35034,-0.65692 0.6746,-0.27725 1.32314,-0.80836 3.30374,-2.70555 l 1.40591,-1.34671 12.28581,0.0165 c 6.7572,0.01 12.63211,0.0122 13.05537,0.009 0.42324,-0.004 0.68963,-0.14675 0.59198,-0.31597 -0.27989,-0.48504 0.85997,-3.26727 1.23645,-3.01807 0.19353,0.12803 0.2355,0.0463 0.0982,-0.19163 -0.39511,-0.68467 0.12938,-1.916 0.71384,-1.67581 0.4106,0.16876 0.43751,0.10995 0.13077,-0.28587 -0.45526,-0.58748 -0.19728,-1.54065 0.417,-1.54065 0.36425,0 1.60922,7.04917 2.43749,13.80146 0.24029,1.95876 0.52325,3.21231 0.72471,3.21065 0.11664,-7e-4 0.71755,-1.80796 1.33529,-4.01551 0.61776,-2.20756 1.28006,-4.4153 1.47185,-4.90608 0.44583,-1.141 0.47934,-1.2779 0.5295,-2.16268 0.0259,-0.45843 0.1864,-0.63911 0.42644,-0.48024 0.24801,0.16415 0.29389,0.0971 0.12909,-0.18841 -0.14066,-0.2437 -0.029,-1.03146 0.2482,-1.7506 0.27716,-0.71912 0.82291,-2.55287 1.21277,-4.07503 0.38985,-1.52215 0.87782,-3.20867 1.08435,-3.74782 0.20653,-0.53911 0.43113,-1.3015 0.49909,-1.6941 0.25067,-1.44769 2.61574,-8.927313 2.85944,-9.043074 0.13863,-0.06582 0.184,-0.237661 0.10077,-0.381806 -0.25397,-0.440108 1.00427,-4.349 1.30552,-4.055758 0.15486,0.150727 0.17381,0.0735 0.0421,-0.171588 -0.2787,-0.518692 1.1245,-5.443757 1.55097,-5.443757 0.15806,0 0.19539,-0.159347 0.083,-0.354109 -0.11235,-0.19476 -0.0671,-0.61693 0.10091,-0.938177 0.25193,-0.482121 0.35523,-0.498186 0.59189,-0.092 0.15769,0.270604 0.33061,0.732934 0.38426,1.027416 0.0949,0.52031 2.11757,14.968143 2.74851,19.631353 0.17265,1.27603 1.37732,10.02983 2.67705,19.45289 2.20386,15.97789 2.59249,18.93155 2.6418,20.07753 0.0101,0.2454 0.1436,0.44617 0.29562,0.44617 0.15204,0 0.63431,-1.76682 1.07174,-3.92627 0.43743,-2.15945 0.92179,-3.92628 1.07639,-3.92628 0.15457,0 0.19241,-0.15359 0.0841,-0.34132 -0.10834,-0.18773 0.0445,-1.43253 0.33956,-2.76623 0.2951,-1.33371 0.60519,-2.80049 0.68908,-3.25951 0.0839,-0.45902 0.67813,-3.18956 1.32052,-6.06787 0.6424,-2.87832 1.19948,-5.55453 1.23796,-5.94716 0.069,-0.70486 0.34871,-0.71509 22.18021,-0.81019 18.9939,-0.0828 22.17983,-0.17081 22.60358,-0.62465 0.59778,-0.6402 0.85691,-0.65898 1.37887,-0.1 0.61372,0.65728 0.5204,2.19609 -0.11728,1.93402 -0.29659,-0.12196 -0.43036,-0.062 -0.3136,0.14027 0.2672,0.46304 -0.60462,0.45742 -1.03796,-0.007 -0.22037,-0.23602 -7.82233,-0.32799 -22.12288,-0.26771 l -21.78714,0.0919 -0.89352,4.2832 c -0.49143,2.35577 -1.59429,7.65623 -2.45078,11.77882 -0.85652,4.12259 -1.64722,7.73656 -1.75714,8.03102 -0.10997,0.29447 -0.24853,0.93478 -0.30805,1.42291 -0.21382,1.75314 -0.87627,4.29407 -1.17023,4.48866 -0.16489,0.10913 -0.31855,0.10858 -0.34145,-7e-4 z"
       id="path826"
       inkscape:connector-curvature="0" />
  </g>
</svg>
